<svg width="218" height="448" viewBox="0 0 218 448" fill="none" xmlns="http://www.w3.org/2000/svg">
<path d="M116.4 61.0079L109.119 57.8209L108.664 70.5689C111.394 70.1136 113.67 69.6583 116.4 69.203C115.945 65.1055 116.4 61.0079 116.4 61.0079Z" fill="#ED7E94"/>
<path d="M116.398 69.6587C113.668 70.114 111.392 70.5693 108.662 71.0245L108.207 77.8538C110.027 85.5937 121.859 89.2359 118.673 81.9514C117.308 78.3091 116.398 73.7563 116.398 69.6587Z" fill="#FF96A9"/>
<path d="M112.757 58.2766C111.847 50.992 120.948 50.992 127.319 49.6262C125.954 46.8945 125.043 45.0733 125.043 45.0733C93.1891 33.2359 99.1049 62.3742 102.745 65.5611C105.021 67.3823 113.212 66.927 120.038 65.1059C116.397 63.74 113.212 61.9189 112.757 58.2766Z" fill="#ED7E94"/>
<path d="M112.756 58.2764C113.211 61.9187 116.396 63.7398 119.582 65.1057C123.677 64.1951 127.318 62.8293 128.683 61.9187C131.413 60.0976 129.138 54.1789 126.863 50.0813C120.492 50.9919 111.846 50.9919 112.756 58.2764Z" fill="#FF96A9"/>
<path d="M110.482 49.6262C110.482 49.6262 130.049 50.992 141.426 42.7969C152.802 34.6018 144.156 10.4717 122.768 21.3985C101.381 32.3254 98.1951 44.6181 98.1951 44.6181C98.1951 44.6181 77.7174 43.2522 82.723 67.3823C82.723 67.3823 53.144 83.7725 60.8801 110.179C68.6161 136.586 94.0996 137.041 109.572 127.025C125.044 117.008 109.572 80.5855 109.572 80.5855L110.027 54.179C110.027 54.179 103.201 51.4473 105.476 48.2603C107.296 45.0733 110.482 49.6262 110.482 49.6262Z" fill="#3F327A"/>
<path d="M123.225 173.008C115.489 170.732 105.933 174.829 102.292 201.691C98.1966 232.65 116.854 318.244 132.326 379.707C134.602 380.162 136.877 380.162 139.152 380.162C127.321 311.87 115.944 242.666 123.225 173.008Z" fill="#DB4A87"/>
<path d="M135.965 181.659C135.965 181.659 130.049 175.285 123.223 173.463C115.942 243.122 127.319 311.87 139.605 380.618C144.611 380.163 149.617 378.797 154.622 376.52C159.628 220.813 135.965 181.659 135.965 181.659Z" fill="#E5649A"/>
<path d="M152.345 417.041C150.525 417.496 148.25 417.496 145.975 417.496C147.34 426.146 149.16 434.797 150.525 443.447C151.435 434.341 151.89 425.691 152.345 417.041Z" fill="#FFD4CD"/>
<path d="M146.431 417.496C145.066 417.496 143.701 417.496 142.336 417.496C147.342 436.163 150.527 447.545 150.527 447.545C150.527 446.179 150.527 444.813 150.982 443.447C149.162 434.797 147.797 426.146 146.431 417.496Z" fill="#F7C6BE"/>
<path d="M132.324 380.163C135.965 394.276 139.15 407.024 141.881 417.496C143.246 417.496 144.611 417.496 145.976 417.496C143.701 405.203 141.425 392.911 139.15 380.163C137.33 380.618 135.055 380.618 132.324 380.163Z" fill="#ED7E94"/>
<path d="M154.624 376.065C150.074 378.341 145.068 380.163 139.607 380.163C141.883 392.455 144.158 404.748 146.433 417.496C148.709 417.496 150.529 417.496 152.804 417.041C153.259 402.471 154.169 388.813 154.624 376.065Z" fill="#FF96A9"/>
<path d="M73.6208 421.138C71.3455 421.138 68.6152 420.683 66.3398 420.228C66.3398 428.878 66.7949 437.073 66.7949 445.724C67.705 442.081 69.9803 433.431 73.6208 421.138Z" fill="#FFD4CD"/>
<path d="M65.8866 448C65.8866 448 65.8866 447.09 66.3417 446.179C66.3417 437.529 66.3417 429.333 65.8866 420.683C64.9765 420.683 64.5214 420.228 63.6113 420.228C64.5214 428.878 64.9765 437.984 65.8866 448Z" fill="#F7C6BE"/>
<path d="M64.0644 419.773C64.9745 420.228 65.4296 420.228 66.3397 420.228C65.8846 406.114 65.8846 391.545 65.4295 376.976C64.0644 376.065 62.6992 375.61 61.7891 374.699C62.2441 388.813 62.6992 403.838 64.0644 419.773Z" fill="#ED7E94"/>
<path d="M73.6247 421.138C76.8101 410.212 80.4506 396.553 84.5462 381.529C77.7203 381.529 71.3494 380.163 65.4336 376.976C65.4336 391.545 65.8887 405.659 66.3437 420.228C68.619 421.138 70.8943 421.138 73.6247 421.138Z" fill="#FF96A9"/>
<path d="M94.556 184.39C99.5616 173.463 113.669 171.642 126.41 170.732C125.045 127.024 99.5616 176.65 99.5616 176.65C99.5616 176.65 53.1454 158.439 61.3365 374.244C62.7017 375.155 63.6118 376.065 64.977 376.52C64.5219 311.415 67.2523 245.398 94.556 184.39Z" fill="#DB4A87"/>
<path d="M94.5579 184.39C67.2542 245.398 64.5239 310.959 65.434 376.976C71.3498 380.163 77.7207 381.528 84.5466 381.528C101.384 320.065 123.227 231.74 125.957 187.577C126.412 180.748 126.412 175.285 126.412 170.732C113.215 171.642 99.1085 173.463 94.5579 184.39Z" fill="#E5649A"/>
<path d="M204.224 24.1301C204.224 24.1301 203.314 3.18699 201.038 0C201.038 0 201.038 0 201.038 0.455285C199.673 31.4146 209.229 63.2846 201.493 93.7886C205.589 95.6098 210.594 96.5203 215.145 96.5203C215.6 83.3171 214.235 66.4715 208.319 49.1707C208.319 49.1707 231.072 25.4959 204.224 24.1301Z" fill="#FF96A9"/>
<path d="M200.586 0.4552C200.131 4.09748 196.946 31.8698 199.676 48.2601C201.496 59.1869 200.586 79.2194 199.221 93.3332C199.676 93.7885 200.586 93.7885 201.041 94.2438C208.777 63.2845 199.221 31.4146 200.586 0.4552Z" fill="#ED7E94"/>
<path d="M36.7612 140.228C29.4802 150.244 23.1094 158.894 20.8341 162.081C13.098 172.098 33.1207 162.081 34.0309 162.081C34.4859 162.081 39.0365 157.529 45.8624 151.155C43.1321 147.512 40.4017 143.415 36.7612 140.228Z" fill="#FF96A9"/>
<path d="M136.42 83.3168C128.684 81.0404 120.948 79.6745 113.667 78.7639C108.207 78.3087 102.291 79.2192 96.8301 80.5851C108.207 90.1461 124.134 90.1461 136.42 83.3168Z" fill="#FF96A9"/>
<path d="M44.043 148.423C44.498 149.333 45.4082 150.244 45.8632 151.154C58.6049 138.862 77.7175 119.284 82.7232 111.545H87.2738C86.8188 108.358 85.9086 105.626 84.9985 102.894C70.4365 117.008 57.2398 132.943 44.043 148.423Z" fill="#F7C6BE"/>
<path d="M199.221 92.8781C198.766 97.8862 198.311 101.984 197.4 104.715C198.766 101.073 200.131 97.4309 201.041 93.7886C200.586 93.3333 200.131 93.3333 199.221 92.8781Z" fill="#F7C6BE"/>
<path d="M201.039 93.7885C200.129 97.4307 199.219 101.073 197.398 104.715C196.943 106.536 196.488 107.902 196.033 108.358C196.033 108.358 165.999 91.9673 135.965 83.3169C124.133 90.1462 107.751 90.1462 96.8298 80.5852C84.9982 83.7722 74.9869 89.6909 72.2565 91.0567C71.8014 91.0567 71.3464 91.512 71.3464 91.9673C68.616 96.0649 50.4135 121.106 36.3066 140.683C39.037 142.959 41.3123 145.691 43.5876 148.878C57.2395 133.398 69.9812 117.463 84.5432 102.894C85.4533 105.626 86.3634 108.813 86.8185 111.545L129.139 109.723C130.959 106.081 134.145 103.349 135.055 99.2519C159.628 109.723 183.747 121.106 210.14 126.114C211.05 123.837 213.781 112.455 214.236 96.9754C210.14 96.5202 205.589 95.6096 201.039 93.7885Z" fill="#FFD4CD"/>
<path d="M135.51 99.2522C134.144 103.35 131.414 106.081 129.594 109.724L137.33 109.268C137.33 109.268 180.106 127.935 211.05 126.569C211.05 126.569 211.05 126.569 211.05 126.114C184.201 121.106 159.628 109.724 135.51 99.2522Z" fill="#F7C6BE"/>
<path d="M84.9998 102.894C83.1796 104.715 81.8144 106.081 80.4492 107.902L83.1796 112C84.9998 114.732 86.365 117.463 87.7302 121.106C88.1853 114.732 86.8201 108.358 84.9998 102.894Z" fill="#F7C6BE"/>
<path d="M99.1055 172.098C99.5605 175.285 99.5605 177.106 99.5605 177.106C125.499 198.049 135.965 181.659 135.965 181.659C136.421 180.293 136.876 178.927 137.331 177.106C133.69 178.927 130.05 180.293 126.409 181.203C116.853 183.935 105.931 179.838 99.1055 172.098Z" fill="#F7C6BE"/>
<path d="M157.808 114.277C155.532 110.634 138.695 108.358 138.695 108.358L136.42 99.7074C135.965 99.7074 135.51 99.2521 135.055 99.2521C133.234 104.26 129.139 107.903 127.318 113.366C129.139 108.358 133.234 104.716 135.055 99.2521C135.51 99.2521 135.965 99.7074 136.42 99.7074L135.965 97.431C94.554 86.0489 76.3516 101.984 76.3516 101.984L79.9921 107.903C81.3572 106.081 83.1775 104.716 84.5427 102.894C86.3629 108.813 87.7281 114.732 87.273 121.106C95.0091 138.407 98.1945 162.537 99.1046 172.553C105.931 180.293 116.852 184.39 126.408 181.203C130.049 180.293 133.689 178.927 137.33 177.106C140.06 165.724 140.515 146.602 140.515 139.317C136.42 137.496 132.779 134.764 129.139 131.577C140.515 134.764 152.802 129.301 157.808 118.829C158.263 116.553 158.263 114.732 157.808 114.277Z" fill="#FFD4CD"/>
<path d="M157.809 118.829C152.349 128.845 140.517 134.764 129.141 131.577C132.781 134.764 136.422 137.04 140.517 139.317C140.517 137.04 140.517 136.13 140.517 136.13C150.073 135.675 156.444 125.658 157.809 118.829Z" fill="#F7C6BE"/>
<path d="M5.36337 117.464H39.948C42.2234 117.464 44.4987 119.285 45.4088 121.561L63.6112 180.748C64.5214 184.39 61.791 188.033 58.1505 188.033H25.8411C23.5658 188.033 21.2905 186.667 20.3804 184.39L0.357697 125.203C-1.00749 121.106 1.72288 117.464 5.36337 117.464Z" fill="#DB4A87"/>
<path d="M64.0674 180.292L45.865 121.105C44.9548 118.829 43.1346 117.008 40.4042 117.008H38.1289C40.4042 117.008 42.6795 118.829 43.5896 121.105L61.7921 180.292C62.7022 183.935 59.9719 187.577 56.3314 187.577H58.1516C62.2472 188.032 64.9775 183.935 64.0674 180.292Z" fill="#CF2E71"/>
<path d="M6.72959 166.634C-1.91658 151.61 8.54983 146.602 13.1004 149.333C17.6511 152.065 26.2972 169.366 19.0162 179.382C19.0162 179.382 15.8308 183.024 6.72959 166.634Z" fill="#FF96A9"/>
<path d="M35.8516 152.065C37.2168 156.618 36.7617 160.716 34.4864 161.171C32.2111 162.081 29.4808 158.894 28.1156 154.342C26.7504 149.789 27.2055 145.691 29.4808 145.236C31.301 144.325 34.4864 147.512 35.8516 152.065Z" fill="#CF2E71"/>
<path d="M96.832 117.464C96.832 117.464 93.1916 123.838 95.4669 129.301C97.7422 134.309 105.933 142.504 120.95 133.399C121.405 132.943 93.6466 137.496 96.832 117.464Z" fill="#F7C6BE"/>
</svg>
