<svg width="66" height="66" viewBox="0 0 66 66" fill="none" xmlns="http://www.w3.org/2000/svg">
<path d="M64.2406 2H23.6602V64.2399H64.2406V2Z" stroke="#3F327A" stroke-width="3" stroke-miterlimit="10" stroke-linecap="round" stroke-linejoin="round"/>
<path d="M23.6595 18.2446H2V64.2399H23.6595V18.2446Z" stroke="#3F327A" stroke-width="3" stroke-miterlimit="10" stroke-linecap="round" stroke-linejoin="round"/>
<path d="M23.6602 26.3669H10.123V34.4892H23.6602V26.3669Z" stroke="#3F327A" stroke-width="3" stroke-miterlimit="10" stroke-linecap="round" stroke-linejoin="round"/>
<path d="M23.6602 42.5803H10.123V50.7026H23.6602V42.5803Z" stroke="#3F327A" stroke-width="3" stroke-miterlimit="10" stroke-linecap="round" stroke-linejoin="round"/>
<path d="M50.7032 64.2398H37.166V56.1175C37.166 53.13 39.5934 50.7026 42.5809 50.7026H45.2883C48.2758 50.7026 50.7032 53.13 50.7032 56.1175V64.2398Z" stroke="#3F327A" stroke-width="3" stroke-miterlimit="10" stroke-linecap="round" stroke-linejoin="round"/>
<path d="M31.7812 10.1223H34.4576" stroke="#D71E6C" stroke-width="3" stroke-miterlimit="10" stroke-linecap="round" stroke-linejoin="round"/>
<path d="M42.5801 10.1223H45.2875" stroke="#D71E6C" stroke-width="3" stroke-miterlimit="10" stroke-linecap="round" stroke-linejoin="round"/>
<path d="M53.4102 10.1223H56.1176" stroke="#D71E6C" stroke-width="3" stroke-miterlimit="10" stroke-linecap="round" stroke-linejoin="round"/>
<path d="M31.7812 18.2446H34.4576" stroke="#D71E6C" stroke-width="3" stroke-miterlimit="10" stroke-linecap="round" stroke-linejoin="round"/>
<path d="M42.5801 18.2446H45.2875" stroke="#D71E6C" stroke-width="3" stroke-miterlimit="10" stroke-linecap="round" stroke-linejoin="round"/>
<path d="M53.4102 18.2446H56.1176" stroke="#D71E6C" stroke-width="3" stroke-miterlimit="10" stroke-linecap="round" stroke-linejoin="round"/>
<path d="M31.7812 26.3669H34.4576" stroke="#D71E6C" stroke-width="3" stroke-miterlimit="10" stroke-linecap="round" stroke-linejoin="round"/>
<path d="M42.5801 26.3669H45.2875" stroke="#D71E6C" stroke-width="3" stroke-miterlimit="10" stroke-linecap="round" stroke-linejoin="round"/>
<path d="M53.4102 26.3669H56.1176" stroke="#D71E6C" stroke-width="3" stroke-miterlimit="10" stroke-linecap="round" stroke-linejoin="round"/>
<path d="M31.7812 34.4583H34.4576" stroke="#D71E6C" stroke-width="3" stroke-miterlimit="10" stroke-linecap="round" stroke-linejoin="round"/>
<path d="M42.5801 34.4583H45.2875" stroke="#D71E6C" stroke-width="3" stroke-miterlimit="10" stroke-linecap="round" stroke-linejoin="round"/>
<path d="M53.4102 34.4583H56.1176" stroke="#D71E6C" stroke-width="3" stroke-miterlimit="10" stroke-linecap="round" stroke-linejoin="round"/>
<path d="M31.7812 42.5803H34.4576" stroke="#D71E6C" stroke-width="3" stroke-miterlimit="10" stroke-linecap="round" stroke-linejoin="round"/>
<path d="M42.5801 42.5803H45.2875" stroke="#D71E6C" stroke-width="3" stroke-miterlimit="10" stroke-linecap="round" stroke-linejoin="round"/>
<path d="M53.4102 42.5803H56.1176" stroke="#D71E6C" stroke-width="3" stroke-miterlimit="10" stroke-linecap="round" stroke-linejoin="round"/>
</svg>
