<svg width="57" height="66" viewBox="0 0 57 66" fill="none" xmlns="http://www.w3.org/2000/svg">
<path d="M28.6701 5.73438C32.2489 5.73438 35.1741 8.65965 35.1741 12.2384C35.1741 15.8172 32.2489 18.7425 28.6701 18.7425C25.0913 18.7425 22.166 15.8172 22.166 12.2384C22.166 8.62853 25.0913 5.73438 28.6701 5.73438Z" stroke="#D71E6C" stroke-width="3" stroke-miterlimit="10" stroke-linecap="round" stroke-linejoin="round"/>
<path d="M36.0775 22.3213L39.7497 23.9084L37.9136 42.9538H33.4945V64.2399H30.7871" stroke="#D71E6C" stroke-width="3" stroke-miterlimit="10" stroke-linecap="round" stroke-linejoin="round"/>
<path d="M21.264 22.3213L17.5918 23.9084L19.4279 42.9538H23.878V64.2399H26.5543" stroke="#D71E6C" stroke-width="3" stroke-miterlimit="10" stroke-linecap="round" stroke-linejoin="round"/>
<path d="M44.2619 15.0081C47.854 15.0081 50.7659 12.0962 50.7659 8.50407C50.7659 4.91197 47.854 2 44.2619 2C40.6698 2 37.7578 4.91197 37.7578 8.50407C37.7578 12.0962 40.6698 15.0081 44.2619 15.0081Z" stroke="#3F327A" stroke-width="3" stroke-miterlimit="10" stroke-linecap="round" stroke-linejoin="round"/>
<path d="M39.4688 47.5908V60.5056H42.1451" stroke="#3F327A" stroke-width="3" stroke-miterlimit="10" stroke-linecap="round" stroke-linejoin="round"/>
<path d="M51.6693 18.5869L55.3414 20.174L53.5054 39.2194H49.0863V60.5055H46.3789" stroke="#3F327A" stroke-width="3" stroke-miterlimit="10" stroke-linecap="round" stroke-linejoin="round"/>
<path d="M13.0783 15.0081C16.6704 15.0081 19.5824 12.0962 19.5824 8.50407C19.5824 4.91197 16.6704 2 13.0783 2C9.48619 2 6.57422 4.91197 6.57422 8.50407C6.57422 12.0962 9.48619 15.0081 13.0783 15.0081Z" stroke="#3F327A" stroke-width="3" stroke-miterlimit="10" stroke-linecap="round" stroke-linejoin="round"/>
<path d="M17.9027 47.5908V60.5056H15.1953" stroke="#3F327A" stroke-width="3" stroke-miterlimit="10" stroke-linecap="round" stroke-linejoin="round"/>
<path d="M5.67215 18.5869L2 20.174L3.83608 39.2194H8.28623V60.5055H10.9625" stroke="#3F327A" stroke-width="3" stroke-miterlimit="10" stroke-linecap="round" stroke-linejoin="round"/>
</svg>
