<svg width="58" height="66" viewBox="0 0 58 66" fill="none" xmlns="http://www.w3.org/2000/svg">
<path d="M39.5625 15.3505C39.5625 15.3505 41.9587 15.1949 41.9587 17.7467C41.9587 20.2985 41.9587 24.9354 41.9587 24.9354C41.9587 24.9354 42.9235 24.0952 44.2616 23.535C45.3819 23.0371 46.6267 23.9085 46.6267 25.1221V27.4872C46.6267 28.5453 46.1911 29.5723 45.4442 30.3192L43.2658 32.4976C42.9235 32.8399 42.7367 33.3067 42.7367 33.7735V35.8585C42.7367 37.539 42.021 39.1572 40.8073 40.3087C38.4733 42.5182 34.2099 45.7547 29.0751 45.7547C23.9714 45.7547 19.708 42.5493 17.3429 40.3087C16.1292 39.1572 15.4134 37.539 15.4134 35.8585V33.7735C15.4134 33.2756 15.2267 32.8399 14.8844 32.4976L12.706 30.3192C11.9591 29.5723 11.5234 28.5453 11.5234 27.4872V25.1221C11.5234 23.9085 12.7682 23.0371 13.8886 23.535C15.2267 24.1263 16.1914 24.9354 16.1914 24.9354C16.1914 24.9354 16.1914 20.2985 16.1914 17.7467C16.1914 15.1949 18.5877 15.3505 18.5877 15.3505H39.5625V15.3505Z" stroke="#3F327A" stroke-width="3" stroke-miterlimit="10" stroke-linecap="round" stroke-linejoin="round"/>
<path d="M37.0089 43.2961V50.2981C37.0089 50.2981 35.9819 54.0325 44.0731 54.0325C52.1643 54.0325 56.1477 61.0968 56.1477 64.2399" stroke="#3F327A" stroke-width="3" stroke-miterlimit="10" stroke-linecap="round" stroke-linejoin="round"/>
<path d="M21.1388 43.2961V50.2981C21.1388 50.2981 22.1657 54.0325 14.0745 54.0325C5.98335 54.0325 2 61.0968 2 64.2399" stroke="#3F327A" stroke-width="3" stroke-miterlimit="10" stroke-linecap="round" stroke-linejoin="round"/>
<path d="M43.1722 15.3505C43.1722 15.3505 47.8713 12.4874 47.8713 9.06423C47.8713 5.60991 47.8713 2 47.8713 2H18.5563C18.5563 2 11.9277 2.96472 11.9277 8.62855C11.9277 14.2924 11.9277 19.8317 11.9277 19.8317" stroke="#D71E6C" stroke-width="3" stroke-miterlimit="10" stroke-linecap="round" stroke-linejoin="round"/>
<path d="M45.7227 16.751V20.7966" stroke="#3F327A" stroke-width="3" stroke-miterlimit="10" stroke-linecap="round" stroke-linejoin="round"/>
</svg>
