<svg width="100" height="56" viewBox="0 0 100 56" fill="none" xmlns="http://www.w3.org/2000/svg">
<path opacity="0.1" fill-rule="evenodd" clip-rule="evenodd" d="M21.804 20.7215C17.2845 16.7989 10.4627 17.14 1.59422 21.5742L0.400391 17.14C19.1606 3.49624 32.6338 1.96132 40.6495 12.5352C47.4714 9.97703 54.4638 7.67464 61.7121 5.71335C88.0616 -1.36435 98.8913 6.65136 99.9146 10.4887C100.767 13.6438 95.5656 26.6906 69.2161 33.7683C62.0532 35.6444 54.8902 37.1793 47.8125 38.3731C46.3628 51.8463 33.9982 57.3891 10.6332 54.9162L9.43938 50.482C19.5869 49.7998 25.6414 46.5594 27.4321 40.5902C23.7653 40.846 20.0986 40.9313 16.3465 41.0166L14.3 33.342L12.2534 25.6674C15.4085 23.9619 18.6489 22.2564 21.804 20.7215ZM65.3788 19.6982C66.1463 22.5122 69.0456 24.2177 71.8596 23.4502C74.6736 22.6828 76.3791 19.7835 75.6116 16.9695C74.8442 14.1554 71.9449 12.45 69.1309 13.2174C66.3168 13.9849 64.6114 16.8842 65.3788 19.6982ZM43.7193 25.4968C44.4868 28.3108 47.3861 30.0163 50.2001 29.2488C53.0142 28.4814 54.7196 25.5821 53.9522 22.7681C53.1847 19.954 50.2854 18.2486 47.4714 19.016C44.6573 19.7835 42.9519 22.6828 43.7193 25.4968Z" fill="#2E2363"/>
<path fill-rule="evenodd" clip-rule="evenodd" d="M30.8438 20.6362L35.5338 16.0314L35.4485 15.9462H47.3015V4.77532H47.3868L52.0769 0.170547L51.9916 0.0852735H52.5885V35.1327L48.069 39.7375H47.3868H36.1307H30.8438V21.2331V20.6362ZM47.3015 34.4505V21.2331H36.1307V34.4505H47.3015ZM73.6511 35.1327L69.0463 39.7375H60.5189H55.232V4.77532H55.3173L60.0073 0.0852735L59.922 0H60.5189V34.3652H73.7363V35.1327H73.6511Z" fill="#2E2363"/>
</svg>
