<svg width="630" height="447" viewBox="0 0 630 447" fill="none" xmlns="http://www.w3.org/2000/svg">
<path d="M408.25 252.934C407.83 252.968 407.408 252.968 406.989 252.934H213.901C202.999 253.024 193.989 239.753 193.989 223.418C193.853 216.018 195.872 208.737 199.8 202.464C203.405 197.124 208.36 193.79 213.856 193.79H406.944C407.363 193.756 407.785 193.756 408.205 193.79C405.567 194.183 403.048 195.157 400.832 196.641C398.615 198.126 396.756 200.084 395.388 202.374C391.468 208.651 389.449 215.929 389.577 223.328C389.622 239.19 397.866 251.988 408.25 252.934Z" fill="#E5649A"/>
<path d="M415.752 252.934C416.006 252.967 416.263 252.967 416.518 252.934H351.194C344.324 252.934 338.76 239.663 338.76 223.306C338.624 216.152 339.863 209.038 342.409 202.352C344.662 197.012 347.77 193.677 351.194 193.677H416.518C416.263 193.644 416.006 193.644 415.752 193.677C412.621 194.128 409.828 197.327 407.755 202.262C405.211 208.949 403.973 216.062 404.106 223.215C404.106 239.19 409.242 251.988 415.752 252.934Z" fill="#FFD4CD"/>
<path d="M351.08 253.024H416.404C416.149 253.057 415.892 253.057 415.638 253.024C412.574 252.573 409.849 249.487 407.776 244.733H351.959C351.959 244.733 346.552 237.973 345.922 223.486C345.42 215.096 347.804 206.787 352.679 199.941H409.105C410.998 196.494 413.318 194.308 415.863 193.948C416.117 193.915 416.375 193.915 416.629 193.948H351.305C347.881 193.948 344.773 197.282 342.52 202.622C339.975 209.309 338.736 216.422 338.871 223.576C338.646 239.753 344.21 253.024 351.08 253.024Z" fill="#CC3977"/>
<path d="M600.977 443.141C600.542 443.175 600.105 443.175 599.67 443.141H398.969C387.572 443.141 378.314 429.352 378.314 412.341C378.169 404.651 380.275 397.085 384.373 390.576C388.112 384.989 393.27 381.564 398.969 381.564H599.67C600.105 381.531 600.542 381.531 600.977 381.564C598.223 381.969 595.597 382.989 593.292 384.55C590.987 386.11 589.063 388.17 587.664 390.576C583.566 397.085 581.46 404.651 581.605 412.341C581.605 428.767 590.165 442.15 600.977 443.141Z" fill="#E5649A"/>
<path d="M608.769 443.141C609.039 443.175 609.311 443.175 609.58 443.141H541.531C534.391 443.141 528.624 429.352 528.624 412.341C528.48 404.911 529.765 397.522 532.408 390.576C534.661 384.989 537.972 381.564 541.419 381.564H609.58C609.311 381.531 609.039 381.531 608.769 381.564C605.526 382.037 602.62 385.349 600.458 390.576C597.814 397.522 596.529 404.911 596.673 412.341C596.673 428.767 602.012 442.15 608.769 443.141Z" fill="#FFD4CD"/>
<path d="M541.532 443.209H609.581C609.312 443.243 609.039 443.243 608.77 443.209C605.594 442.736 602.756 439.514 600.616 434.58H542.433C542.433 434.58 536.824 427.64 536.171 412.477C535.61 403.728 538.067 395.051 543.131 387.895H601.697C603.679 384.335 606.202 382.06 608.702 381.677C608.972 381.643 609.244 381.643 609.513 381.677H541.532C537.973 381.677 534.774 385.124 532.522 390.689C529.878 397.635 528.594 405.024 528.737 412.454C528.625 429.42 534.391 443.209 541.532 443.209Z" fill="#CC3977"/>
<path d="M8.98828 379.671C9.48384 379.671 9.9794 379.671 10.4975 379.671H240.594C253.659 379.671 264.268 365.725 264.268 348.511C264.395 340.609 261.961 332.879 257.33 326.476C255.445 323.754 252.95 321.512 250.044 319.927C247.138 318.343 243.902 317.46 240.594 317.35H10.4975C9.9794 317.35 9.48384 317.35 8.98828 317.35C12.0229 317.688 14.9514 318.666 17.5802 320.219C20.209 321.773 22.4782 323.867 24.2379 326.363C28.8748 332.763 31.3093 340.495 31.1758 348.398C31.1758 365.116 21.3772 378.658 8.98828 379.671Z" fill="#E5649A"/>
<path d="M2.09551 379.671C1.44228 379.671 0.789042 379.671 0.113281 379.671H164.03C172.292 379.671 180.216 376.388 186.059 370.545C191.901 364.701 195.183 356.775 195.183 348.511C195.183 340.247 191.901 332.321 186.059 326.477C180.216 320.633 172.292 317.35 164.03 317.35H0.113281C0.789042 317.35 1.44228 317.35 2.09551 317.35C9.99355 317.855 17.4024 321.351 22.8136 327.128C28.2247 332.905 31.2312 340.527 31.2208 348.443C31.2602 356.381 28.2673 364.034 22.8538 369.839C17.4403 375.643 10.015 379.16 2.09551 379.671Z" fill="#FFD4CD"/>
<path d="M195.138 348.578C195.144 344.489 194.344 340.438 192.783 336.657C191.222 332.877 188.932 329.442 186.043 326.547C183.153 323.653 179.722 321.357 175.945 319.791C172.168 318.224 168.119 317.418 164.03 317.418H0.113281C0.789042 317.418 1.44228 317.418 2.09551 317.418C9.38572 317.883 16.2778 320.907 21.5574 325.957H164.954C164.954 325.957 187.479 328.548 187.479 348.488C187.479 368.428 164.954 371.425 164.954 371.425H21.2195C15.9886 376.301 9.23113 379.215 2.09551 379.671C1.44228 379.671 0.789042 379.671 0.113281 379.671H164.03C172.275 379.665 180.18 376.388 186.012 370.559C191.844 364.73 195.126 356.825 195.138 348.578Z" fill="#CC3977"/>
<path d="M408.249 444.223C407.581 444.257 406.912 444.257 406.244 444.223H96.9036C88.4562 444.223 80.3548 440.866 74.3816 434.892C68.4084 428.917 65.0527 420.814 65.0527 412.364C65.0527 403.914 68.4084 395.811 74.3816 389.836C80.3548 383.862 88.4562 380.505 96.9036 380.505H406.244C406.912 380.471 407.581 380.471 408.249 380.505C400.184 381.032 392.621 384.608 387.095 390.508C381.569 396.407 378.494 404.189 378.494 412.274C378.494 420.358 381.569 428.14 387.095 434.04C392.621 439.94 400.184 443.516 408.249 444.043V444.223Z" fill="#3F327A"/>
<path d="M411.719 444.223C412.394 444.223 413.093 444.223 413.768 444.223H243.026C238.808 444.259 234.624 443.463 230.713 441.881C226.802 440.299 223.242 437.962 220.234 435.004C217.226 432.046 214.83 428.524 213.183 424.639C211.536 420.754 210.67 416.583 210.635 412.364C210.637 408.166 211.477 404.011 213.105 400.142C214.734 396.273 217.118 392.768 220.118 389.833C226.23 383.83 234.461 380.478 243.026 380.505H413.768C413.093 380.505 412.394 380.505 411.719 380.505C403.878 380.961 396.468 384.242 390.86 389.743C387.86 392.678 385.476 396.183 383.848 400.052C382.219 403.921 381.379 408.076 381.377 412.274C381.394 420.469 384.548 428.347 390.191 434.289C395.834 440.23 403.537 443.785 411.719 444.223Z" fill="#F7C6BE"/>
<path d="M218.765 412.477C218.765 391.41 237.912 385.169 237.912 385.169H397.166C401.598 382.532 406.594 380.987 411.74 380.663C412.416 380.663 413.114 380.663 413.79 380.663H243.048C234.482 380.636 226.251 383.987 220.139 389.991C217.139 392.926 214.755 396.431 213.127 400.3C211.499 404.169 210.659 408.324 210.656 412.522C210.692 416.741 211.557 420.912 213.204 424.797C214.851 428.681 217.247 432.203 220.255 435.162C223.263 438.12 226.824 440.457 230.735 442.039C234.645 443.621 238.829 444.416 243.048 444.381H413.79C413.114 444.381 412.416 444.381 411.74 444.381C405.228 443.978 398.987 441.622 393.832 437.621H236.651C236.651 437.621 218.765 433.543 218.765 412.477Z" fill="#3F327A"/>
<path d="M521.192 348.781C521.192 357.225 517.839 365.323 511.87 371.293C505.901 377.264 497.805 380.618 489.364 380.618H239.648C238.466 380.626 237.286 380.565 236.111 380.437C243.888 379.556 251.067 375.841 256.28 370.002C261.493 364.163 264.374 356.609 264.374 348.781C264.374 340.953 261.493 333.399 256.28 327.56C251.067 321.722 243.888 318.007 236.111 317.125C237.285 316.99 238.466 316.922 239.648 316.922H489.364C497.807 316.928 505.903 320.287 511.871 326.262C517.84 332.236 521.192 340.336 521.192 348.781Z" fill="#FFD4CD"/>
<path d="M489.364 316.922H239.648C238.466 316.922 237.285 316.989 236.111 317.125C241.07 317.994 245.831 319.749 250.167 322.307L487.9 322.533C487.9 322.533 514.93 323.073 515.133 348.781C515.336 374.489 488.373 374.377 488.373 374.377H251.384C246.9 377.665 241.636 379.723 236.111 380.347C237.286 380.475 238.466 380.536 239.648 380.528H489.364C497.662 380.307 505.546 376.855 511.336 370.906C517.127 364.957 520.368 356.983 520.368 348.68C520.368 340.377 517.127 332.402 511.336 326.454C505.546 320.505 497.662 317.053 489.364 316.832V316.922Z" fill="#3F327A"/>
<path d="M91.5879 285.063C91.5849 289.246 92.406 293.388 94.0042 297.253C95.6024 301.119 97.9464 304.631 100.902 307.59C103.858 310.548 107.368 312.895 111.231 314.497C115.094 316.098 119.235 316.922 123.416 316.922H373.132C374.314 316.923 375.495 316.855 376.669 316.719C368.893 315.838 361.713 312.123 356.5 306.284C351.287 300.446 348.406 292.891 348.406 285.063C348.406 277.235 351.287 269.681 356.5 263.842C361.713 258.004 368.893 254.289 376.669 253.407C375.495 253.272 374.314 253.204 373.132 253.204H123.416C114.973 253.21 106.877 256.57 100.909 262.544C94.9405 268.518 91.5879 276.618 91.5879 285.063Z" fill="#FFD4CD"/>
<path d="M123.417 253.204H373.133C374.315 253.204 375.496 253.272 376.67 253.407C372.37 253.898 368.215 255.263 364.461 257.418L124.476 258.522C124.476 258.522 97.7609 259.378 97.6483 285.063C97.5356 310.749 124.408 310.749 124.408 310.749H361.398C365.873 314.051 371.142 316.111 376.67 316.719C375.496 316.855 374.315 316.923 373.133 316.922H123.417C114.97 316.922 106.868 313.566 100.895 307.591C94.9221 301.616 91.5664 293.513 91.5664 285.063C91.5664 276.614 94.9221 268.51 100.895 262.536C106.868 256.561 114.97 253.204 123.417 253.204Z" fill="#3F327A"/>
<path d="M134.251 149.606L127.854 142.306C127.505 143.392 127.021 144.429 126.412 145.393C127.57 146.1 128.568 147.04 129.343 148.153C130.119 149.267 130.655 150.529 130.917 151.86C131.818 158.461 131.503 158.303 135.557 156.05C139.612 153.797 134.251 149.606 134.251 149.606Z" fill="#FF96A9"/>
<path d="M125.038 138.927L120.533 142.577C122.626 143.207 124.61 144.157 126.412 145.393C127.021 144.429 127.505 143.392 127.854 142.306L125.038 138.927Z" fill="#ED7E94"/>
<path d="M120.623 135.074C117.852 137.327 114.068 139.58 110.193 138.882C110.531 142.104 111.432 147.196 113.572 147.511C115.933 147.359 118.211 146.581 120.172 145.258C121.681 141.991 123.01 138.679 120.623 135.074Z" fill="#FF96A9"/>
<path d="M109.969 136.268C109.969 136.268 109.969 137.372 110.194 138.882C114.068 139.49 117.853 137.282 120.623 135.074C123.011 138.679 121.682 141.991 120.173 145.235C123.867 143.118 127.786 139.738 129.003 136.223C131.098 130.275 123.912 122.344 109.969 136.268Z" fill="#ED7E94"/>
<path d="M121.366 133.294C121.366 133.294 109.382 145.123 97.1283 132.235C84.8745 119.347 122.74 101.367 130.218 125.926C130.218 125.926 150.604 119.167 151.054 140.031C151.054 140.031 203.966 143.41 183.558 182.569C166.957 214.181 131.998 169.839 134.25 149.606L123.168 136.719C123.168 136.719 126.164 132.821 123.911 131.92C123.659 131.778 123.376 131.703 123.087 131.701C122.799 131.698 122.514 131.769 122.26 131.906C122.006 132.043 121.791 132.242 121.635 132.485C121.478 132.728 121.386 133.006 121.366 133.294Z" fill="#3F327A"/>
<path d="M73.9954 224.838C73.8729 225.258 73.8926 225.706 74.0515 226.114C74.2104 226.521 74.4995 226.865 74.8739 227.091C74.8739 227.091 110.329 216.186 119.654 202.397L128.236 175.359C126.958 175.327 125.688 175.145 124.452 174.819C121.884 183.966 122.92 195.322 116.388 202.262C105.599 214.158 89.9209 220.174 73.9954 224.838Z" fill="#ED7E94"/>
<path d="M109.97 197.8C109.97 197.8 90.8688 214.789 80.6873 219.588C75.9119 221.841 74.3351 223.599 73.9297 224.838C89.8551 220.174 105.465 214.158 116.345 202.307C122.877 195.367 121.841 184.011 124.409 174.864C122.388 174.322 120.448 173.511 118.643 172.453C115.737 181.601 113.372 191.469 109.97 197.8Z" fill="#FF96A9"/>
<path d="M133.802 159.655C138.442 157.966 141.281 152.896 142.587 147.736C138.904 147.243 135.163 148.039 132 149.99C129.495 151.496 127.38 153.573 125.828 156.05C126.584 157.438 127.771 158.541 129.21 159.191C130.65 159.842 132.262 160.005 133.802 159.655Z" fill="#FF96A9"/>
<path d="M124.475 174.751C125.711 175.078 126.981 175.259 128.259 175.292L128.799 173.625L131.908 171.371C131.187 169.501 130.466 167.609 129.655 165.604C127.109 168.11 125.315 171.278 124.475 174.751Z" fill="#DB4A87"/>
<path d="M142.586 147.736C141.279 153.009 138.441 157.965 133.801 159.655C132.268 160.011 130.661 159.858 129.223 159.22C127.785 158.582 126.593 157.493 125.827 156.118C122.729 161.177 120.334 166.635 118.709 172.34C120.515 173.398 122.454 174.209 124.475 174.751C125.326 171.332 127.103 168.213 129.611 165.739C130.467 167.744 131.188 169.637 131.864 171.507L141.392 164.747C141.392 164.747 142.225 165.919 143.442 167.924C147.832 167.025 151.928 165.042 155.358 162.156C153.636 158.064 151.484 154.167 148.938 150.53C147.077 149.1 144.898 148.142 142.586 147.736Z" fill="#E5649A"/>
<path d="M148.938 150.53C151.485 154.13 153.644 157.989 155.38 162.044C155.943 161.548 156.506 161.052 157.047 160.534C155.08 156.664 152.317 153.255 148.938 150.53Z" fill="#DB4A87"/>
<path d="M119.858 242.885C136.436 238.897 154.479 232.025 168.355 220.174C168.355 220.174 147.767 215.352 141.324 222.878C126.888 223.145 112.485 224.372 98.2109 226.55C106.962 229.586 114.536 235.301 119.858 242.885Z" fill="#CC3977"/>
<path d="M119.857 242.885C114.565 235.32 107.033 229.607 98.3232 226.55C76.9127 229.492 55.9336 234.999 35.8379 242.953L107.739 316.382C107.739 316.382 85.6865 257.936 73.9508 248.36C89.4111 248.283 104.812 246.446 119.857 242.885Z" fill="#ED7E94"/>
<path d="M120.668 187.526C121.299 189.892 126.885 195.299 131.705 192.618C131.705 192.618 132.223 193.317 133.012 194.511C133.757 193.812 134.45 193.059 135.084 192.258C134.859 191.807 134.634 191.357 134.386 190.928C134.634 191.357 134.859 191.807 135.084 192.258C135.94 191.086 136.694 189.842 137.337 188.54C134.688 189.752 131.783 190.293 128.876 190.116C125.969 189.94 123.15 189.05 120.668 187.526Z" fill="#DB4A87"/>
<path d="M144.296 159.34L126.906 165.941L128.799 173.625C128.799 173.625 120.036 182.119 120.622 187.369C120.613 187.451 120.613 187.534 120.622 187.616C123.119 189.13 125.95 190.004 128.866 190.161C131.781 190.319 134.691 189.754 137.336 188.518C136.693 189.819 135.939 191.063 135.083 192.235C134.449 193.036 133.756 193.789 133.011 194.488C136.209 199.355 143.958 212.513 141.435 222.855C141.435 222.855 150.445 232.881 167.182 221.007L168.353 220.151C168.353 220.151 162.271 178.356 144.296 159.34Z" fill="#E5649A"/>
<path d="M149.816 178.762C149.816 179.145 154.569 191.807 140.941 189.351C140.941 189.351 148.668 189.915 149.816 178.762Z" fill="#DB4A87"/>
<path d="M165.562 197.417C162.453 185.634 160.201 173.129 155.403 162.044C151.973 164.929 147.877 166.912 143.487 167.812C146.483 172.813 151.799 183.043 152.362 193.61C152.362 193.61 129.837 215.577 115.826 220.174C114.188 219.081 112.326 218.37 110.376 218.093C108.427 217.816 106.441 217.981 104.563 218.574C102.174 219.557 100.085 221.149 98.5039 223.193C106.163 221.819 114.137 223.486 121.029 220.782C136.797 214.789 150.583 205.191 165.562 197.417Z" fill="#FF96A9"/>
<path d="M157.068 160.534C156.527 161.052 155.964 161.548 155.401 162.044C160.199 173.129 162.452 185.634 165.56 197.417C150.581 205.191 136.795 214.789 121.208 220.782C114.202 223.486 106.228 221.819 98.6822 223.193C97.7808 224.359 97.0244 225.63 96.4297 226.978L118.009 225.378C118.009 225.378 156.37 209.674 168.353 198.634C168.353 198.634 165.425 175.652 157.068 160.534Z" fill="#ED7E94"/>
<path d="M132.039 223.042L50.9797 228.257C50.1355 228.311 49.4952 229.04 49.5495 229.884L49.5712 230.222C49.6255 231.066 50.3538 231.707 51.198 231.652L132.257 226.438C133.101 226.383 133.742 225.655 133.687 224.81L133.666 224.473C133.611 223.629 132.883 222.988 132.039 223.042Z" fill="#2E2363"/>
<path d="M132.09 226.437L90.6205 229.096C90.3979 229.114 90.1739 229.088 89.9617 229.018C89.7496 228.948 89.5536 228.836 89.3855 228.689C89.2174 228.542 89.0806 228.363 88.9832 228.162C88.8858 227.961 88.8298 227.742 88.8184 227.519C88.8032 227.297 88.8319 227.074 88.9029 226.863C88.9739 226.652 89.0859 226.457 89.2324 226.29C89.379 226.123 89.5571 225.986 89.7566 225.887C89.9562 225.789 90.1732 225.731 90.3952 225.716L131.864 223.058C132.087 223.039 132.311 223.066 132.523 223.136C132.735 223.206 132.931 223.318 133.099 223.465C133.267 223.612 133.404 223.791 133.502 223.992C133.599 224.193 133.655 224.412 133.666 224.635C133.682 224.857 133.653 225.08 133.582 225.291C133.511 225.502 133.399 225.696 133.252 225.864C133.106 226.031 132.928 226.168 132.728 226.267C132.529 226.365 132.312 226.423 132.09 226.437Z" fill="#3F327A"/>
<path d="M51.1537 228.24L37.0078 194.691L77.0804 192.123L90.2803 225.739L51.1537 228.24Z" fill="#2E2363"/>
<path d="M66.428 209.314C67.3065 212.468 66.2928 215.487 64.1755 216.073C62.0581 216.659 59.6704 214.586 58.7694 211.432C57.8683 208.277 58.9045 205.258 61.0219 204.672C63.1393 204.087 65.5945 206.159 66.428 209.314Z" fill="#7860DC"/>
<path d="M173.333 227.925C171.99 225.158 170.318 222.563 168.355 220.196C168.355 220.196 139.928 224.094 108.82 231.89C116.204 237.262 121.996 244.534 125.579 252.934C141.189 251.965 156.281 248.743 169.143 238.762C170.778 237.522 172.035 235.852 172.775 233.938C173.515 232.024 173.708 229.942 173.333 227.925Z" fill="#DB4A87"/>
<path d="M173.333 227.924C173.715 229.936 173.533 232.013 172.805 233.927C172.077 235.84 170.833 237.514 169.211 238.762C156.349 248.743 141.257 251.965 125.646 252.934C126.097 253.903 126.502 254.872 126.885 255.886C152.857 254.106 182.433 247.842 173.333 227.924Z" fill="#CC3977"/>
<path d="M85.2578 253.137C94.7469 277.057 102.692 301.561 109.045 326.498L109.968 327.467C109.968 327.467 104.427 277.718 91.9478 256.133C103.596 256.707 115.268 256.624 126.907 255.886C126.524 254.872 126.119 253.903 125.668 252.934C112.131 253.745 98.3 252.866 85.2578 253.137Z" fill="#ED7E94"/>
<path d="M108.82 231.89C92.1368 235.835 75.8331 241.24 60.0977 248.045C60.0977 248.045 81.4742 297.613 109.045 326.498C102.693 301.561 94.7476 277.057 85.2585 253.137C98.3007 252.866 112.131 253.745 125.579 252.934C121.995 244.534 116.204 237.262 108.82 231.89Z" fill="#FF96A9"/>
<path d="M269.292 150.846C276.384 154.632 283.963 157.422 291.817 159.137L289.182 162.111C282.224 161.449 275.457 159.46 269.247 156.253C262.335 152.791 256.203 147.953 251.227 142.036C256.599 135.723 262.641 130.011 269.247 125.002C271.319 123.425 273.549 121.848 275.892 120.316C283.718 115.065 292.446 111.307 301.638 109.231C293.574 112.103 285.835 115.819 278.55 120.316C275.325 122.321 272.219 124.51 269.247 126.873C263.708 131.245 258.73 136.285 254.425 141.878C259.203 145.152 264.167 148.147 269.292 150.846Z" fill="#EAC7ED"/>
<path d="M279.99 131.784C283.194 129.98 286.659 128.688 290.262 127.954H294.339C294.226 126.805 294.114 125.701 294.024 124.507C288.992 126.18 284.256 128.636 279.99 131.784Z" fill="#EAC7ED"/>
<path d="M326.888 122.704C326.811 124.472 326.578 126.228 326.189 127.954H333.645C333.645 127.954 354.481 136.967 358.806 141.585C349.083 148.309 338.154 153.091 326.617 155.667L328.104 157.74C340.831 154.608 353.107 149.854 363.604 141.293C352.209 133.553 339.87 127.307 326.888 122.704Z" fill="#EAC7ED"/>
<path d="M375.362 142.306C370.881 145.938 365.943 148.968 360.676 151.319C351.232 155.703 341.562 159.584 331.708 162.945L327.969 157.808C339.715 155.241 350.833 150.362 360.676 143.455C361.622 142.757 362.545 142.036 363.469 141.202L360.676 139.422C350.098 132.561 338.759 126.951 326.888 122.704C326.808 124.47 326.582 126.226 326.212 127.954H294.339C294.226 126.805 294.113 125.701 294.023 124.507C288.988 126.17 284.251 128.627 279.99 131.784C276.129 133.935 272.537 136.536 269.29 139.535C268.142 140.594 267.488 141.292 267.488 141.292C267.963 142.217 268.57 143.067 269.29 143.816C276.048 151.093 294.902 155.667 294.902 155.667L291.861 159.137C284.007 157.422 276.427 154.632 269.335 150.846C264.225 148.13 259.276 145.121 254.514 141.833C258.818 136.24 263.796 131.2 269.335 126.827C272.308 124.465 275.414 122.276 278.638 120.271C285.923 115.773 293.662 112.058 301.727 109.186C305.429 108.394 309.203 107.986 312.989 107.969C327.135 107.969 340.02 113.579 350.382 120.271C359.727 126.373 368.141 133.795 375.362 142.306Z" fill="#F6DEF8"/>
<path d="M299.542 182.862H333.33V162.9C321.324 162.044 309.521 160.466 297.537 160.489C298.303 168.037 298.979 175.495 299.542 182.862Z" fill="#EAC7ED"/>
<path d="M334.907 120.316H288.031L289.743 126.129C291.135 125.501 292.565 124.959 294.023 124.507C295.149 136.538 296.433 148.547 297.582 160.557C309.566 160.557 321.369 162.111 333.375 162.967L333.645 127.954L334.907 120.316Z" fill="#F6DEF8"/>
<path d="M313.689 118.514L322.181 125.498L321.078 107.135H306.594L305.197 125.498L313.689 118.514Z" fill="#EAC7ED"/>
<path d="M306.615 110.763C310.985 115.585 316.954 114.954 322.203 112.881C322.203 112.565 322.406 112.272 322.496 111.957C321.606 112.207 320.704 112.41 319.793 112.565C314.409 113.174 307.809 112.565 305.421 107.18C305.016 108.536 304.375 109.809 303.529 110.943C305.399 117.027 309.138 122.456 312.539 123.245C310.661 121.759 309.149 119.86 308.122 117.695C307.095 115.531 306.579 113.159 306.615 110.763Z" fill="#ED7E94"/>
<path d="M322.181 112.836C316.932 114.909 310.918 115.539 306.593 110.718C306.562 113.117 307.085 115.492 308.12 117.656C309.155 119.821 310.675 121.718 312.562 123.2C312.839 123.231 313.119 123.231 313.396 123.2C316.707 123.313 320.244 118.581 322.181 112.836Z" fill="#FF96A9"/>
<path d="M312.743 92.738C302.021 92.738 300.94 102.426 303.507 110.898C304.354 109.764 304.994 108.491 305.4 107.135C307.787 112.52 314.41 113.129 319.771 112.52C320.682 112.365 321.584 112.162 322.474 111.912C325.064 103.237 323.87 92.738 312.743 92.738Z" fill="#3F327A"/>
<path d="M289.744 126.129L290.262 127.954L296.119 182.862H299.543C298.079 163.373 295.871 143.906 294.024 124.417C292.563 124.899 291.134 125.471 289.744 126.129Z" fill="#EAC7ED"/>
<path d="M314.387 125.701C314.387 125.839 314.346 125.974 314.269 126.089C314.192 126.204 314.083 126.293 313.956 126.346C313.828 126.399 313.688 126.413 313.552 126.386C313.417 126.359 313.292 126.293 313.195 126.195C313.097 126.097 313.031 125.973 313.004 125.837C312.977 125.702 312.991 125.561 313.043 125.434C313.096 125.306 313.186 125.197 313.301 125.12C313.415 125.043 313.55 125.003 313.689 125.003C313.874 125.003 314.051 125.076 314.182 125.207C314.313 125.338 314.387 125.516 314.387 125.701Z" fill="#EAC7ED"/>
<g style="mix-blend-mode:soft-light" opacity="0.6">
<path d="M360.676 127.909V162.156C360.676 162.754 360.439 163.327 360.017 163.749C359.594 164.172 359.021 164.409 358.424 164.409H271.588C270.991 164.409 270.418 164.172 269.996 163.749C269.573 163.327 269.336 162.754 269.336 162.156V125.003C271.408 123.425 273.638 121.848 275.981 120.316H350.427C353.986 122.648 357.408 125.183 360.676 127.909Z" fill="#FCEE21"/>
</g>
<path d="M347.161 170.853H282.963C282.366 170.853 281.793 170.616 281.371 170.193C280.948 169.771 280.711 169.198 280.711 168.6C280.711 168.003 280.948 167.43 281.371 167.007C281.793 166.584 282.366 166.347 282.963 166.347H347.161C347.758 166.347 348.331 166.584 348.754 167.007C349.176 167.43 349.413 168.003 349.413 168.6C349.413 169.198 349.176 169.771 348.754 170.193C348.331 170.616 347.758 170.853 347.161 170.853Z" fill="#3F327A"/>
<path d="M347.949 169.051H283.864C283.267 169.051 282.694 168.813 282.272 168.391C281.849 167.968 281.612 167.395 281.612 166.798C281.332 167.008 281.105 167.28 280.949 167.593C280.792 167.905 280.711 168.25 280.711 168.6C280.711 169.198 280.948 169.771 281.371 170.193C281.793 170.616 282.366 170.853 282.963 170.853H347.161C347.758 170.853 348.331 170.616 348.754 170.193C349.176 169.771 349.413 169.198 349.413 168.6C348.989 168.909 348.474 169.067 347.949 169.051Z" fill="#2E2363"/>
<path d="M340.719 131.289H289.293C284.529 131.289 280.666 135.152 280.666 139.918V155.825C280.666 160.591 284.529 164.454 289.293 164.454H340.719C345.483 164.454 349.346 160.591 349.346 155.825V139.918C349.346 135.152 345.483 131.289 340.719 131.289Z" fill="#3F327A"/>
<path d="M298.415 164.454H287.49V166.257H298.415V164.454Z" fill="#2E2363"/>
<path d="M341.394 164.454H330.469V166.257H341.394V164.454Z" fill="#2E2363"/>
<path d="M320.468 147.872C320.619 148.985 320.427 150.117 319.918 151.119C319.408 152.12 318.606 152.942 317.617 153.475C316.629 154.007 315.501 154.226 314.385 154.101C313.269 153.976 312.217 153.513 311.371 152.775C310.525 152.036 309.924 151.057 309.649 149.968C309.374 148.879 309.437 147.732 309.831 146.68C310.225 145.628 310.93 144.721 311.852 144.08C312.775 143.44 313.871 143.096 314.994 143.095C316.352 143.008 317.689 143.462 318.714 144.356C319.739 145.251 320.369 146.514 320.468 147.872Z" fill="#7860DC"/>
<path d="M266.07 170.2C257.263 178.581 259.876 217.763 307.224 263.253C307.224 263.253 307.224 262.983 307.089 262.51C297.155 247.977 286.816 233.535 279.653 217.448C273.481 202.554 263.818 186.805 266.07 170.2Z" fill="#7860DC"/>
<path d="M369.505 168.555C365 155.667 342.745 175.314 314.385 175.314C306.389 175.314 282.039 167.924 269.65 168.555C268.29 168.653 267.011 169.236 266.046 170.2C263.794 186.805 273.479 202.554 279.561 217.515C286.634 233.647 297.063 248.09 306.997 262.577C305.848 256.178 297.244 209.404 289.157 193.79H340.402C340.402 193.79 326.887 233.963 328.126 263.321C328.171 263.253 379.619 197.553 369.505 168.555Z" fill="#8B77E8"/>
<path d="M306.03 256.945L303.598 288.128L311.459 259.355L306.03 256.945Z" fill="#3F327A"/>
<path d="M328.126 256.945L341.641 282.72L323.621 261.451L328.126 256.945Z" fill="#3F327A"/>
<path d="M328.824 258.274C328.824 243.268 347.498 182.186 347.498 182.186C326.489 190.396 303.106 190.073 282.332 181.285C284.938 185.252 287.242 189.41 289.225 193.722H340.402C340.402 193.722 328.554 228.33 328.081 256.945L328.824 258.274Z" fill="#7860DC"/>
<path d="M471.412 292.273C471.038 292.28 470.676 292.144 470.4 291.893C470.124 291.641 469.954 291.294 469.925 290.921C469.887 290.528 470.005 290.135 470.253 289.827C470.502 289.52 470.861 289.322 471.254 289.277L522.86 283.982L540.497 238.694C540.568 238.511 540.674 238.343 540.81 238.201C540.946 238.059 541.108 237.944 541.288 237.865C541.468 237.785 541.662 237.742 541.859 237.738C542.055 237.733 542.251 237.767 542.434 237.838C542.618 237.909 542.785 238.016 542.927 238.151C543.07 238.287 543.184 238.45 543.263 238.63C543.343 238.81 543.386 239.003 543.391 239.2C543.395 239.397 543.361 239.592 543.29 239.776L525.112 286.776L471.659 292.273H471.412Z" fill="#3F327A"/>
<path d="M457.646 214.406C462.692 208.728 455.056 211.567 455.056 211.567L453.637 214.113C454.152 215.495 454.817 216.818 455.619 218.056C456.033 216.711 456.723 215.468 457.646 214.406Z" fill="#ED7E94"/>
<path d="M453.639 214.203L447.422 225.311C447.422 225.311 451.319 231.89 453.864 231.146C455.914 230.538 453.864 223.734 455.621 218.146C454.819 216.908 454.154 215.586 453.639 214.203Z" fill="#FF96A9"/>
<path d="M462.829 207.939C466.725 206.475 470.645 207.399 474.542 207.782L475.578 205.529C475.578 205.529 463.144 198.026 457.558 198.476C451.971 198.927 451.971 206.543 455.17 211.657C456.483 213.682 458.386 215.255 460.621 216.163C459.382 213.032 459.788 209.494 462.829 207.939Z" fill="#ED7E94"/>
<path d="M462.829 207.939C459.743 209.494 459.382 213.031 460.576 216.163C462.012 216.778 463.529 217.18 465.081 217.357L469.428 213.167L471.546 214.654L474.677 207.894C470.645 207.399 466.725 206.475 462.829 207.939Z" fill="#FF96A9"/>
<path d="M463.436 205.664C472.877 207.034 482.467 207.034 491.908 205.664C491.908 205.664 477.515 193.677 453.255 193.993C453.255 193.993 446.97 202.374 455.057 211.657L460.148 207.647C460.148 207.647 457.737 203.14 460.44 202.847C463.143 202.555 463.436 205.664 463.436 205.664Z" fill="#3F327A"/>
<path d="M516.462 297.771L557.593 376.179C557.593 376.179 502.316 336.975 501.122 320.144C501.122 320.144 470.172 323.749 459.36 315.368C448.548 306.986 516.462 297.771 516.462 297.771Z" fill="#7860DC"/>
<path d="M519.345 288.037H517.903C498.238 291.213 478.973 296.501 460.441 303.809C459.022 312.822 462.04 321.338 463.707 330.126C469.162 329.228 474.523 327.833 479.723 325.957C489.898 322.262 499.665 317.528 508.871 311.83C495.693 327.061 498.081 376.044 498.081 376.044C524.436 355.766 548.56 290.178 548.56 290.178C538.933 288.37 529.133 287.652 519.345 288.037Z" fill="#8B77E8"/>
<path d="M460.443 303.832C478.974 296.524 498.24 291.236 517.905 288.06C480.941 289.164 440.372 300.069 440.372 300.069C440.372 300.069 418.636 320.347 443.616 329.044C450.124 331.042 457.021 331.421 463.709 330.148C462.042 321.361 459.023 312.777 460.443 303.832Z" fill="#7860DC"/>
<path d="M450.011 220.67C450.011 220.67 421.494 268.3 418.498 322.555C418.498 322.555 433.185 332.762 456.543 332.446C456.543 332.446 453.435 274.609 456.543 262.6C459.652 250.591 460.35 218.416 450.011 220.67Z" fill="#8B77E8"/>
<path d="M455.034 284.049C450.529 265.259 442.646 242.908 450.822 224.5C433.478 228.713 452.872 288.083 452.872 288.083C459.382 290.538 482.335 288.375 493.553 287.114C493.553 286.573 493.553 286.032 493.553 285.491C480.719 287.084 467.713 286.597 455.034 284.049Z" fill="#7860DC"/>
<path d="M455.035 284.049C467.721 286.6 480.735 287.087 493.576 285.491C493.596 283.821 493.33 282.16 492.787 280.58C479.115 279.386 461.252 271.567 461.252 271.567C456.747 261.383 464.135 224.252 452.782 224.252C452.092 224.25 451.403 224.333 450.733 224.5C442.646 242.908 450.62 265.259 455.035 284.049Z" fill="#8B77E8"/>
<path d="M495.535 280.737C494.634 280.737 493.733 280.737 492.787 280.58C493.329 282.16 493.596 283.821 493.576 285.491L496.301 285.199C496.288 283.68 496.03 282.173 495.535 280.737Z" fill="#F6DEF8"/>
<path d="M493.576 285.492C493.576 286.032 493.576 286.573 493.576 287.114L496.302 286.798C496.302 286.258 496.302 285.739 496.302 285.199L493.576 285.492Z" fill="#EAC7ED"/>
<path d="M509.118 276.524C501.932 277.11 499.252 280.557 499.252 280.557C498.019 280.71 496.777 280.771 495.535 280.737C496.034 282.188 496.293 283.71 496.301 285.244C503.599 284.433 510.852 283.283 518.06 282.089C517.275 280.39 516.01 278.959 514.421 277.97C512.832 276.981 510.989 276.479 509.118 276.524Z" fill="#FF96A9"/>
<path d="M496.301 285.199C496.301 285.739 496.301 286.258 496.301 286.798L499.882 286.348L519.187 284.365C518.889 283.582 518.519 282.827 518.083 282.112C510.852 283.238 503.599 284.387 496.301 285.199Z" fill="#ED7E94"/>
<path d="M551.512 371.831L579.578 380.595L549.484 380.573L551.512 371.831Z" fill="#3F327A"/>
<path d="M497.945 371.898L521.664 380.573H492.922L497.945 371.898Z" fill="#3F327A"/>
<path d="M451.52 307.121H451.34L433.905 302.142C433.756 302.1 433.63 302 433.554 301.865C433.478 301.73 433.458 301.57 433.5 301.421C433.518 301.345 433.552 301.273 433.598 301.211C433.645 301.148 433.703 301.095 433.77 301.055C433.837 301.015 433.912 300.989 433.989 300.978C434.067 300.968 434.145 300.973 434.221 300.993L451.678 305.972C451.829 306.019 451.956 306.123 452.031 306.262C452.107 306.401 452.126 306.563 452.083 306.716C452.045 306.835 451.97 306.938 451.868 307.011C451.767 307.084 451.645 307.123 451.52 307.121Z" fill="#7860DC"/>
<path d="M453.209 292.273C453.214 292.623 453.114 292.966 452.922 293.258C452.731 293.551 452.457 293.779 452.135 293.915C451.813 294.051 451.458 294.088 451.115 294.02C450.772 293.953 450.457 293.786 450.21 293.538C449.963 293.291 449.795 292.976 449.728 292.633C449.661 292.29 449.698 291.935 449.833 291.613C449.969 291.291 450.198 291.017 450.49 290.825C450.783 290.634 451.125 290.534 451.475 290.538C451.702 290.538 451.928 290.583 452.138 290.67C452.349 290.758 452.54 290.885 452.701 291.047C452.862 291.208 452.99 291.399 453.077 291.609C453.164 291.82 453.209 292.045 453.209 292.273Z" fill="#7860DC"/>
<path d="M628.729 446.003H5.94763C5.73256 446.003 5.52631 445.917 5.37423 445.765C5.22215 445.613 5.13672 445.407 5.13672 445.192C5.13672 444.977 5.22215 444.77 5.37423 444.618C5.52631 444.466 5.73256 444.381 5.94763 444.381H628.729C628.944 444.381 629.15 444.466 629.302 444.618C629.454 444.77 629.54 444.977 629.54 445.192C629.54 445.407 629.454 445.613 629.302 445.765C629.15 445.917 628.944 446.003 628.729 446.003Z" fill="#C8C2ED"/>
<path d="M319.905 64.9346H305.421C305.2 64.9346 304.988 64.8468 304.832 64.6904C304.676 64.5341 304.588 64.322 304.588 64.1009C304.588 63.8798 304.676 63.6678 304.832 63.5114C304.988 63.3551 305.2 63.2673 305.421 63.2673H319.905C320.126 63.2673 320.338 63.3551 320.494 63.5114C320.651 63.6678 320.739 63.8798 320.739 64.1009C320.739 64.322 320.651 64.5341 320.494 64.6904C320.338 64.8468 320.126 64.9346 319.905 64.9346Z" fill="#FE9736"/>
<path d="M318.756 67.2553H306.615C306.394 67.2553 306.182 67.1675 306.025 67.0111C305.869 66.8548 305.781 66.6428 305.781 66.4217C305.781 66.2006 305.869 65.9885 306.025 65.8322C306.182 65.6758 306.394 65.588 306.615 65.588H318.778C318.999 65.588 319.211 65.6758 319.368 65.8322C319.524 65.9885 319.612 66.2006 319.612 66.4217C319.612 66.6428 319.524 66.8548 319.368 67.0111C319.211 67.1675 318.999 67.2553 318.778 67.2553H318.756Z" fill="#FE9736"/>
<path d="M317.135 69.576H308.124C307.903 69.576 307.691 69.4882 307.535 69.3318C307.379 69.1755 307.291 68.9634 307.291 68.7423C307.291 68.5212 307.379 68.3092 307.535 68.1529C307.691 67.9965 307.903 67.9087 308.124 67.9087H317.135C317.356 67.9087 317.568 67.9965 317.724 68.1529C317.88 68.3092 317.968 68.5212 317.968 68.7423C317.968 68.9634 317.88 69.1755 317.724 69.3318C317.568 69.4882 317.356 69.576 317.135 69.576Z" fill="#FE9736"/>
<path d="M312.63 20.6385C308.087 20.5162 303.678 22.1872 300.356 25.2903C297.035 28.3934 295.068 32.6792 294.88 37.2214C294.767 44.7468 298.033 48.149 301.48 51.7539C302.043 52.3623 302.651 52.9706 303.214 53.624C304.284 54.7195 305.12 56.0218 305.67 57.4513C306.22 58.8808 306.473 60.4075 306.413 61.938C306.397 62.0213 306.398 62.1071 306.417 62.1898C306.436 62.2726 306.472 62.3504 306.523 62.4183C306.574 62.4862 306.639 62.5427 306.713 62.5841C306.787 62.6256 306.869 62.6511 306.953 62.659H318.351C318.517 62.6312 318.665 62.5409 318.766 62.4066C318.866 62.2724 318.911 62.1046 318.892 61.938C318.818 60.4079 319.062 58.8791 319.609 57.4482C320.156 56.0172 320.993 54.7151 322.068 53.624C322.654 52.9706 323.239 52.3623 323.825 51.7539C327.271 48.149 330.582 44.7468 330.425 37.2214C330.231 32.6732 328.256 28.3839 324.926 25.2808C321.596 22.1777 317.179 20.5101 312.63 20.6385Z" fill="#FFCC46"/>
<path d="M309.274 70.2069V70.7026C309.227 71.191 309.281 71.6838 309.434 72.1502C309.586 72.6166 309.833 73.0465 310.159 73.4129C310.486 73.7792 310.884 74.0742 311.33 74.2792C311.775 74.4842 312.259 74.5949 312.749 74.6042C313.239 74.6135 313.727 74.5214 314.18 74.3335C314.633 74.1456 315.042 73.866 315.382 73.5124C315.722 73.1587 315.985 72.7386 316.155 72.2783C316.325 71.818 316.398 71.3276 316.37 70.8378V70.2069H309.274Z" fill="#FE9736"/>
<path d="M290.846 36.8609H274.628C274.532 36.8609 274.441 36.8229 274.373 36.7553C274.306 36.6877 274.268 36.596 274.268 36.5004C274.268 36.4048 274.306 36.3131 274.373 36.2455C274.441 36.1779 274.532 36.1399 274.628 36.1399H290.846C290.942 36.1399 291.034 36.1779 291.101 36.2455C291.169 36.3131 291.207 36.4048 291.207 36.5004C291.207 36.596 291.169 36.6877 291.101 36.7553C291.034 36.8229 290.942 36.8609 290.846 36.8609Z" fill="#FFCC46"/>
<path d="M284.271 60.6086C284.215 60.6104 284.159 60.5991 284.108 60.5756C284.058 60.5521 284.013 60.5172 283.978 60.4734C283.913 60.4027 283.877 60.3103 283.877 60.2143C283.877 60.1184 283.913 60.0259 283.978 59.9552L296.66 50.5372C296.737 50.4775 296.836 50.451 296.933 50.4637C297.03 50.4764 297.118 50.5271 297.178 50.6048C297.237 50.6825 297.264 50.7807 297.251 50.8779C297.239 50.9751 297.188 51.0633 297.11 51.123L284.428 60.541C284.381 60.574 284.327 60.597 284.271 60.6086Z" fill="#FFCC46"/>
<path d="M296.952 20.7962C296.873 20.8275 296.784 20.8275 296.705 20.7962L284.09 9.03493C284.056 9.00131 284.028 8.96105 284.009 8.91654C283.99 8.87202 283.98 8.82417 283.98 8.77582C283.98 8.72747 283.99 8.67962 284.009 8.6351C284.028 8.59059 284.056 8.55033 284.09 8.51671C284.161 8.45179 284.253 8.41577 284.349 8.41577C284.445 8.41577 284.538 8.45179 284.608 8.51671L297.29 20.1878C297.355 20.2585 297.391 20.351 297.391 20.4469C297.391 20.5429 297.355 20.6354 297.29 20.706C297.247 20.7505 297.193 20.7823 297.134 20.7982C297.074 20.8141 297.011 20.8134 296.952 20.7962Z" fill="#FFCC46"/>
<path d="M351.665 38.8661H335.47C335.374 38.8661 335.283 38.8282 335.215 38.7605C335.147 38.6929 335.109 38.6013 335.109 38.5056C335.109 38.41 335.147 38.3183 335.215 38.2507C335.283 38.1831 335.374 38.1451 335.47 38.1451H351.665C351.761 38.1451 351.853 38.1831 351.92 38.2507C351.988 38.3183 352.026 38.41 352.026 38.5056C352.026 38.6013 351.988 38.6929 351.92 38.7605C351.853 38.8282 351.761 38.8661 351.665 38.8661Z" fill="#FFCC46"/>
<path d="M341.957 62.6139C341.883 62.634 341.805 62.634 341.732 62.6139L329.14 53.1283C329.075 53.0576 329.039 52.9652 329.039 52.8692C329.039 52.7732 329.075 52.6808 329.14 52.6101C329.174 52.5753 329.214 52.5477 329.258 52.5288C329.303 52.51 329.351 52.5002 329.399 52.5002C329.447 52.5002 329.495 52.51 329.54 52.5288C329.584 52.5477 329.624 52.5753 329.658 52.6101L342.34 62.0281C342.403 62.095 342.439 62.1837 342.439 62.2759C342.439 62.3681 342.403 62.4568 342.34 62.5238C342.293 62.5769 342.231 62.6142 342.163 62.6303C342.094 62.6465 342.022 62.6407 341.957 62.6139Z" fill="#FFCC46"/>
<path d="M329.275 22.8916C329.174 22.889 329.077 22.8488 329.004 22.7789C328.97 22.7453 328.942 22.705 328.923 22.6605C328.904 22.616 328.895 22.5682 328.895 22.5198C328.895 22.4715 328.904 22.4236 328.923 22.3791C328.942 22.3346 328.97 22.2943 329.004 22.2607L341.686 10.5896C341.72 10.5548 341.76 10.5272 341.804 10.5083C341.849 10.4895 341.897 10.4797 341.945 10.4797C341.994 10.4797 342.041 10.4895 342.086 10.5083C342.13 10.5272 342.171 10.5548 342.204 10.5896C342.269 10.6603 342.305 10.7527 342.305 10.8487C342.305 10.9447 342.269 11.0371 342.204 11.1078L329.522 22.7789C329.491 22.8138 329.453 22.8419 329.41 22.8613C329.368 22.8807 329.322 22.891 329.275 22.8916Z" fill="#FFCC46"/>
<path d="M313.148 17.6418C313.052 17.6418 312.96 17.6039 312.893 17.5363C312.825 17.4687 312.787 17.377 312.787 17.2813V0.360498C312.787 0.264888 312.825 0.173194 312.893 0.105588C312.96 0.0379812 313.052 0 313.148 0C313.243 0 313.335 0.0379812 313.402 0.105588C313.47 0.173194 313.508 0.264888 313.508 0.360498V17.394C313.483 17.4691 313.435 17.5341 313.37 17.5789C313.304 17.6236 313.226 17.6458 313.148 17.6418Z" fill="#FFCC46"/>
<path d="M538.445 196.539L544.887 205.844L539.571 211.77L532.205 205.912L538.445 196.539Z" fill="#FE9736"/>
<path d="M516.529 196.539L510.109 205.844L515.425 211.77L522.791 205.912L516.529 196.539Z" fill="#FFA42F"/>
<path d="M530.517 158.912C529.61 157.99 528.588 157.187 527.477 156.523C526.482 157.225 525.562 158.025 524.729 158.912C526.609 159.531 528.637 159.531 530.517 158.912Z" fill="#FF5B41"/>
<path d="M530.518 158.912C528.638 159.531 526.609 159.531 524.729 158.912C521.17 162.584 515.426 170.673 515.426 184.687C515.426 194.646 517.678 205.664 520.99 210.666H533.987C537.32 205.664 539.55 194.646 539.55 184.687C539.55 170.087 534.122 162.382 530.518 158.912Z" fill="#FFCC46"/>
<path d="M530.743 159.137C534.099 163.238 537.996 170.65 537.996 182.975C537.996 192.934 535.743 203.951 532.432 208.953H519.998C520.295 209.543 520.626 210.114 520.989 210.666H533.986C537.32 205.664 539.55 194.646 539.55 184.687C539.55 170.403 534.324 162.72 530.743 159.137Z" fill="#FFA42F"/>
<path d="M533.784 182.322C533.784 183.989 533.122 185.588 531.943 186.767C530.765 187.945 529.166 188.608 527.499 188.608C526.998 188.606 526.499 188.546 526.013 188.428C525.536 188.32 525.074 188.154 524.639 187.932L524.098 187.616C523.011 186.917 522.163 185.903 521.665 184.71C521.367 183.949 521.214 183.139 521.215 182.322C521.233 180.666 521.903 179.085 523.079 177.92C524.256 176.756 525.844 176.103 527.499 176.103C528.402 176.123 529.29 176.335 530.106 176.723C530.921 177.111 531.645 177.668 532.23 178.356L532.613 178.852C532.893 179.244 533.128 179.667 533.311 180.114C533.595 180.817 533.756 181.564 533.784 182.322Z" fill="#3F327A"/>
<path d="M532.228 178.176L524.097 187.616C523.01 186.917 522.162 185.903 521.664 184.71L528.962 176.216C530.226 176.52 531.366 177.204 532.228 178.176Z" fill="#503DAD"/>
<path d="M533.311 179.933L526.013 188.427C525.536 188.32 525.074 188.154 524.639 187.932L532.613 178.672C532.893 179.064 533.128 179.487 533.311 179.933Z" fill="#503DAD"/>
<path d="M522.34 165.153C518.257 172.73 516.68 181.407 517.835 189.937C517.835 189.937 520.516 170.11 526.012 165.153H522.34Z" fill="#FFE194"/>
<path d="M524.953 211.229H529.143L527.048 219.047L524.953 211.229Z" fill="#FF5B41"/>
<path d="M111.433 86.9024H1.43771e-07C-0.000335112 84.8955 0.585668 82.9323 1.68596 81.2541C2.78625 79.5758 4.35286 78.2558 6.19316 77.4563C8.03346 76.6568 10.0672 76.4127 12.0444 76.7539C14.0216 77.0952 15.856 78.0069 17.322 79.377C17.334 78.5343 17.5762 77.711 18.0225 76.9961C18.4688 76.2813 19.1021 75.7022 19.8538 75.3216C20.6056 74.941 21.4471 74.7734 22.2873 74.8369C23.1274 74.9004 23.9342 75.1926 24.6202 75.6819C25.4787 69.4619 28.3778 63.703 32.8624 59.3092C37.347 54.9155 43.1632 52.1356 49.3982 51.406C55.6332 50.6764 61.9338 52.0383 67.3113 55.278C72.6887 58.5177 76.8384 63.4517 79.1091 69.3056C80.7518 68.028 82.7035 67.2083 84.7658 66.9301C86.828 66.6519 88.9271 66.9249 90.8495 67.7216C92.772 68.5182 94.4492 69.81 95.7105 71.4655C96.9718 73.121 97.7722 75.0811 98.0304 77.1465C98.6475 77.0371 99.2733 76.9843 99.9 76.9887C102.692 76.9799 105.394 77.9769 107.512 79.7973C109.63 81.6177 111.022 84.1399 111.433 86.9024Z" fill="#E4E0FF"/>
<path d="M0.0220907 86.2941C0.0108656 86.4967 0.0108656 86.6998 0.0220907 86.9024H111.433C111.406 86.6978 111.368 86.4947 111.32 86.2941H0.0220907Z" fill="#D3CEF5"/>
<path d="M41.5147 170.2C41.4271 170.206 41.3391 170.194 41.2561 170.166C41.173 170.137 41.0966 170.092 41.0315 170.033C40.9663 169.974 40.9136 169.903 40.8767 169.823C40.8397 169.743 40.8192 169.657 40.8164 169.569V129.509C40.8164 129.341 40.8829 129.181 41.0011 129.063C41.1194 128.944 41.2798 128.878 41.4471 128.878C41.5308 128.875 41.6142 128.889 41.6922 128.919C41.7701 128.95 41.8409 128.996 41.9001 129.056C41.9593 129.115 42.0057 129.186 42.0363 129.264C42.0668 129.342 42.081 129.425 42.0778 129.509V169.569C42.0787 169.725 42.0216 169.876 41.9176 169.993C41.8136 170.109 41.67 170.183 41.5147 170.2Z" fill="#FFCC46"/>
<path d="M41.5147 115.877C41.4282 115.887 41.3408 115.878 41.2578 115.852C41.1749 115.826 41.0982 115.783 41.0326 115.726C40.967 115.669 40.914 115.599 40.8768 115.52C40.8396 115.442 40.819 115.356 40.8164 115.269V106.257C40.8164 106.089 40.8829 105.929 41.0011 105.811C41.1194 105.692 41.2798 105.626 41.4471 105.626C41.5308 105.623 41.6142 105.637 41.6922 105.667C41.7701 105.698 41.8409 105.744 41.9001 105.804C41.9593 105.863 42.0057 105.934 42.0363 106.012C42.0668 106.09 42.081 106.173 42.0778 106.257V115.269C42.0783 115.423 42.0204 115.571 41.9159 115.684C41.8114 115.797 41.6681 115.866 41.5147 115.877Z" fill="#FFCC46"/>
<path d="M55.9081 184.935C55.7408 184.935 55.5804 184.869 55.4621 184.75C55.3438 184.632 55.2773 184.472 55.2773 184.304V170.222C55.2773 170.055 55.3438 169.895 55.4621 169.776C55.5804 169.658 55.7408 169.591 55.9081 169.591C55.9917 169.588 56.0752 169.602 56.1531 169.633C56.2311 169.664 56.3019 169.71 56.3611 169.769C56.4203 169.828 56.4666 169.899 56.4972 169.977C56.5278 170.055 56.5419 170.139 56.5388 170.222V184.304C56.5419 184.388 56.5278 184.471 56.4972 184.549C56.4666 184.627 56.4203 184.698 56.3611 184.757C56.3019 184.817 56.2311 184.863 56.1531 184.894C56.0752 184.924 55.9917 184.938 55.9081 184.935Z" fill="#FFCC46"/>
<path d="M55.9081 160.557C55.7408 160.557 55.5804 160.49 55.4621 160.372C55.3438 160.254 55.2773 160.093 55.2773 159.926V136.178C55.2773 136.011 55.3438 135.85 55.4621 135.732C55.5804 135.614 55.7408 135.547 55.9081 135.547C55.9917 135.544 56.0752 135.558 56.1531 135.589C56.2311 135.619 56.3019 135.666 56.3611 135.725C56.4203 135.784 56.4666 135.855 56.4972 135.933C56.5278 136.011 56.5419 136.094 56.5388 136.178V159.926C56.5419 160.009 56.5278 160.093 56.4972 160.171C56.4666 160.249 56.4203 160.32 56.3611 160.379C56.3019 160.438 56.2311 160.484 56.1531 160.515C56.0752 160.546 55.9917 160.56 55.9081 160.557Z" fill="#FFCC46"/>
<path d="M55.9081 129.216C55.7426 129.21 55.5854 129.142 55.4683 129.025C55.3512 128.908 55.283 128.75 55.2773 128.585V102.764C55.283 102.599 55.3512 102.442 55.4683 102.324C55.5854 102.207 55.7426 102.139 55.9081 102.133C56.0753 102.133 56.2357 102.2 56.354 102.318C56.4723 102.437 56.5388 102.597 56.5388 102.764V128.585C56.5388 128.752 56.4723 128.913 56.354 129.031C56.2357 129.149 56.0753 129.216 55.9081 129.216Z" fill="#FFCC46"/>
<path d="M55.9081 99.6099C55.7387 99.6041 55.5783 99.5327 55.4606 99.4108C55.343 99.2889 55.2772 99.126 55.2773 98.9565V94.9911C55.2773 94.8238 55.3438 94.6633 55.4621 94.545C55.5804 94.4267 55.7408 94.3602 55.9081 94.3602C55.9953 94.3504 56.0837 94.3596 56.1671 94.3871C56.2505 94.4147 56.327 94.46 56.3912 94.52C56.4554 94.5799 56.5059 94.6531 56.5391 94.7344C56.5724 94.8157 56.5876 94.9033 56.5838 94.9911V98.934C56.5905 99.0245 56.5777 99.1154 56.5461 99.2004C56.5145 99.2855 56.465 99.3627 56.4008 99.4269C56.3367 99.4911 56.2594 99.5406 56.1744 99.5722C56.0894 99.6038 55.9985 99.6167 55.9081 99.6099Z" fill="#FFCC46"/>
<path d="M69.0174 180.992C68.8519 180.987 68.6948 180.918 68.5777 180.801C68.4606 180.684 68.3923 180.527 68.3867 180.361V173.85C68.3866 173.68 68.4523 173.518 68.57 173.396C68.6877 173.274 68.8481 173.202 69.0174 173.196C69.1022 173.196 69.1861 173.213 69.2641 173.247C69.3421 173.28 69.4127 173.328 69.4716 173.389C69.5304 173.45 69.5764 173.522 69.6067 173.602C69.6371 173.681 69.6512 173.765 69.6481 173.85V180.384C69.6423 180.547 69.5733 180.702 69.4556 180.816C69.338 180.929 69.1809 180.992 69.0174 180.992Z" fill="#FFCC46"/>
<path d="M69.0174 165.896C68.8501 165.896 68.6897 165.83 68.5714 165.712C68.4532 165.593 68.3867 165.433 68.3867 165.266V116.328C68.3923 116.162 68.4606 116.005 68.5777 115.888C68.6948 115.771 68.8519 115.703 69.0174 115.697C69.1847 115.697 69.3451 115.764 69.4634 115.882C69.5817 116 69.6481 116.161 69.6481 116.328V165.266C69.6513 165.349 69.6371 165.433 69.6066 165.511C69.576 165.589 69.5296 165.659 69.4704 165.719C69.4112 165.778 69.3404 165.824 69.2625 165.855C69.1845 165.885 69.1011 165.9 69.0174 165.896Z" fill="#FFCC46"/>
<path d="M69.0174 105.085C68.8501 105.085 68.6897 105.019 68.5714 104.9C68.4532 104.782 68.3867 104.621 68.3867 104.454V98.9791C68.3923 98.8135 68.4606 98.6563 68.5777 98.5392C68.6948 98.4221 68.8519 98.3538 69.0174 98.3482C69.1847 98.3482 69.3451 98.4147 69.4634 98.533C69.5817 98.6513 69.6481 98.8118 69.6481 98.9791V104.454C69.6513 104.538 69.6371 104.621 69.6066 104.699C69.576 104.777 69.5296 104.848 69.4704 104.907C69.4112 104.966 69.3404 105.013 69.2625 105.043C69.1845 105.074 69.1011 105.088 69.0174 105.085Z" fill="#FFCC46"/>
</svg>
