<svg width="175" height="25" viewBox="0 0 175 25" fill="none" xmlns="http://www.w3.org/2000/svg">
<path d="M40.8679 19.0441C42.4507 16.4579 43.0475 13.3231 42.5286 10.3189C42.0096 7.31473 40.3749 4.59791 38.0136 2.71703C35.8859 1.01901 33.2392 0.0785752 30.5406 0.0263286C27.6085 -0.025918 24.7283 0.99289 22.4967 2.87377C21.8999 3.37011 21.2512 3.84033 20.6025 4.31055C19.3311 5.27711 18.0596 6.21755 16.7882 7.18411C15.5946 8.09843 14.401 8.98662 13.2074 9.90093C12.896 10.136 12.5587 10.3973 12.2473 10.6324C12.2214 10.6585 12.1176 10.7108 12.0916 10.7369C12.0657 10.7891 12.0916 10.8936 12.0916 10.9459C12.0916 12.2782 12.0916 13.6104 12.0916 14.9427C12.0916 16.3011 12.0916 17.6334 12.0916 18.9918C12.0916 19.0702 12.0916 19.1486 12.0916 19.227C12.7663 18.6784 13.4409 18.1298 14.1415 17.5551C15.2313 16.6669 16.2952 15.8048 17.385 14.9166C17.6445 14.7076 17.878 14.5248 18.1375 14.3158C18.4229 16.2228 19.1235 18.0514 20.2393 19.6188C21.3031 21.1601 22.7303 22.4662 24.365 23.3806C26.0516 24.321 34.0695 24.5822 35.9378 23.6418C37.7542 22.7275 39.3629 21.3429 40.5306 19.671C40.6084 19.4882 40.7382 19.2792 40.8679 19.0441C41.0236 18.809 40.8679 19.0702 40.8679 19.0441ZM23.8201 12.5133C23.8201 9.50908 25.9478 6.79226 28.854 6.13918C31.4229 5.53834 34.1214 6.58328 35.6524 8.75151C36.5087 9.97931 36.9238 11.4683 36.846 12.9574C36.7422 14.4986 36.0935 15.9615 35.0556 17.0848C33.2392 18.9918 30.3849 19.6188 27.9718 18.6522C25.8181 17.7902 24.2353 15.7787 23.9239 13.4537C23.846 13.1402 23.8201 12.8267 23.8201 12.5133Z" fill="#EC8023"/>
<path d="M40.6093 19.4615C40.6093 19.4615 40.6093 19.4354 40.6093 19.4615C40.6093 19.4615 33.8369 19.4093 30.3339 19.4093C28.7252 19.4093 27.7391 18.6517 26.7531 17.9986C24.9887 16.8231 23.821 14.8116 23.821 12.5127C23.821 10.031 25.0406 8.56812 25.8968 7.70605L18.0605 14.263C18.9168 20.3236 24.0805 24.9736 30.3339 24.9736C30.4896 24.9736 57.0863 24.9736 57.0863 24.9736V19.4615H40.6093Z" fill="#E42542"/>
<path d="M0 0L6.09777 5.43365V25H0V0Z" fill="#E42542"/>
<path d="M0 8.56844L12.0399 19.2006V10.7106L0 0V8.56844Z" fill="#E9603F"/>
<path d="M55.4757 0.0263672L43.877 12.5133H52.31L64.0126 0.0263672H55.4757Z" fill="#EC8023"/>
<path d="M55.4498 24.9745L43.877 12.5137H52.3101L63.9607 24.9745H55.4498Z" fill="#E9603F"/>
<path d="M64.0124 0.0517578H36.793C36.8708 0.104004 40.3738 1.43629 42.6053 5.56378H58.8488L64.0124 0.0517578Z" fill="#E42542"/>
<path d="M81.0359 13.9496H78.7006L78.6487 6.08648L74.523 13.9496H73.6926L69.515 6.2171L69.4891 13.9496H67.1797L67.5689 0.287109H68.6068L74.1856 10.1095L79.6088 0.287109H80.6467L81.0359 13.9496Z" fill="#3E2935"/>
<path d="M83.5002 13.9496H81.0352L87.3146 0.391602H87.8595L94.1389 13.9496H91.6219L90.4024 11.285H84.6679L83.5002 13.9496ZM85.4982 9.37802H89.5721L87.5222 4.75419L85.4982 9.37802Z" fill="#3E2935"/>
<path d="M104.96 12.88C104.96 12.88 103.222 14.0033 100.523 14.0033C96.008 14.0033 92.998 11.0514 92.998 7.10676C92.998 3.26663 96.2415 0.236328 100.212 0.236328C104.934 0.236328 104.934 0.236328 104.934 0.236328L104.337 2.32619C104.337 2.32619 102.339 2.32619 100.627 2.32619C97.487 2.32619 95.5669 4.41606 95.5669 7.13288C95.5669 9.79746 97.6168 11.7567 100.393 11.7567C102.651 11.7567 104.259 10.8424 104.259 10.8424L104.96 12.88Z" fill="#3E2935"/>
<path d="M102.52 0.261719H113.755V2.35158H109.37V13.7152H106.983V2.35158H102.52V0.261719Z" fill="#3E2935"/>
<path d="M113.133 0.261719H121.825V2.45608H115.494V6.81867H125.718V8.93466H115.494V11.547H121.825V13.7413H113.133V0.261719Z" fill="#3E2935"/>
<path d="M148.657 7.31574C143.727 12.6188 141.651 13.6898 138.926 13.6898C134.541 13.6898 131.635 10.7901 131.635 6.95002C131.635 3.18826 134.774 0.236328 138.615 0.236328C141.443 0.236328 143.182 1.28126 143.182 1.28126L142.403 3.24051C142.403 3.24051 140.691 2.37844 139.03 2.37844C135.994 2.37844 134.126 4.31156 134.126 6.97614C134.126 9.58847 136.124 11.5216 138.796 11.5216C142.403 11.5216 146.269 6.8194 146.269 6.8194C146.269 6.8194 149.072 6.87165 148.657 7.31574Z" fill="#3E2935"/>
<path d="M143.906 0.236328H146.268V6.8194L151.95 0.236328H154.83L148.681 7.31574L154 12.5665L152.21 13.6898L146.293 7.91658V13.6898H143.932V0.236328H143.906Z" fill="#3E2935"/>
<path d="M154.676 13.6898H152.211L158.49 0.236328H159.035L165.315 13.6898H162.798L161.63 11.0252H155.818L154.676 13.6898ZM156.674 9.1705H160.748L158.724 4.5728L156.674 9.1705Z" fill="#3E2935"/>
<path d="M174.812 13.7152H172.45V9.79673H170.997C170.582 9.79673 170.764 9.7706 170.375 9.74448L165.86 13.7152H162.668L167.624 9.16977C165.963 8.38607 165.185 6.92316 165.185 5.04228C165.185 2.22097 166.975 0.261719 170.53 0.261719H174.812V13.7152ZM170.712 2.42995C168.48 2.42995 167.754 3.55326 167.754 5.04228C167.754 6.53131 168.506 7.70686 170.712 7.70686H172.45V2.42995H170.712Z" fill="#3E2935"/>
<path d="M126.028 8.98617V13.6361H123.719V0.287109H126.391C127.663 0.287109 128.727 0.705081 129.583 1.5149C130.439 2.32473 130.88 3.36966 130.88 4.62358C130.88 5.8775 130.439 6.92243 129.583 7.75837C128.727 8.5682 127.637 8.98617 126.391 8.98617H126.028ZM126.028 2.61208V6.6612H126.417C127.663 6.6612 128.623 5.82525 128.623 4.62358C128.623 3.44803 127.663 2.58596 126.417 2.58596H126.028V2.61208Z" fill="#3E2935"/>
<path d="M70.034 18.7832C71.6427 18.7832 72.8882 19.9588 72.8882 21.6829C72.8882 23.3548 71.6687 24.5826 70.034 24.5826C68.4252 24.5826 67.1797 23.407 67.1797 21.6829C67.1797 20.0371 68.3733 18.7832 70.034 18.7832ZM70.034 23.9295C71.3054 23.9295 72.1617 22.9368 72.1617 21.6829C72.1617 20.3767 71.2276 19.4363 70.034 19.4363C68.8144 19.4363 67.9062 20.3767 67.9062 21.6829C67.9062 22.9368 68.8404 23.9295 70.034 23.9295Z" fill="#3E2935"/>
<path d="M78.859 19.4883H76.835L76.7313 20.5593C76.3939 24.1382 75.6414 24.5823 74.7852 24.4778V23.7986C75.1744 23.8509 75.849 23.6419 76.1085 19.9846L76.1863 18.8613H79.5336V24.4778H78.859V19.4883Z" fill="#3E2935"/>
<path d="M82.7227 18.8613H85.8883V19.5144H83.4233V21.343H85.6548V21.9961H83.4233V23.877H85.9662V24.5301H82.7227V18.8613Z" fill="#3E2935"/>
<path d="M88.8477 18.8613H91.9614V19.5144H89.5223V24.504H88.8477V18.8613Z" fill="#3E2935"/>
<path d="M95.3599 18.8359H95.9307L98.3439 24.5047H97.6174L96.8908 22.8067H94.3479L93.6473 24.5047H92.9727L95.3599 18.8359ZM94.6333 22.1275H96.6573L95.6453 19.7241L94.6333 22.1275Z" fill="#3E2935"/>
<path d="M103.611 23.6683L103.975 23.198C104.338 23.616 104.935 23.9034 105.376 23.9034C106.102 23.9034 106.647 23.5376 106.647 22.8323C106.647 22.2837 106.258 21.918 105.557 21.918H104.909V21.2649H105.506C105.973 21.2649 106.44 20.8731 106.44 20.3245C106.44 19.7236 105.999 19.4102 105.428 19.4102C104.883 19.4102 104.494 19.6453 104.156 20.0371L103.767 19.593C104.13 19.0967 104.779 18.7832 105.506 18.7832C106.466 18.7832 107.114 19.3318 107.114 20.2722C107.114 20.7425 106.855 21.2649 106.31 21.5523V21.5784C106.985 21.709 107.322 22.2576 107.322 22.9107C107.322 23.9556 106.44 24.5565 105.402 24.5565C104.597 24.5565 103.897 24.1385 103.611 23.6683Z" fill="#3E2935"/>
<path d="M111.942 18.8359H112.513L114.926 24.5047H114.199L113.473 22.8067H110.93L110.229 24.5047H109.555L111.942 18.8359ZM111.215 22.1275H113.239L112.227 19.7241L111.215 22.1275Z" fill="#3E2935"/>
<path d="M117.416 18.8613H118.091L120.192 21.7349L122.216 18.8613H122.865V24.4778H122.19V19.9324L120.218 22.7276H120.115L118.117 19.9585V24.4778H117.416V18.8613Z" fill="#3E2935"/>
<path d="M126.729 20.9512C127.041 20.9251 127.3 20.8989 127.482 20.8989C128.883 20.8989 129.558 21.5782 129.558 22.6231C129.558 23.7986 128.727 24.4778 127.326 24.4778C126.859 24.4778 126.392 24.4517 126.055 24.4517V18.8613H126.729V20.9512ZM126.729 21.6043V23.8509C126.937 23.8509 127.145 23.877 127.404 23.877C128.312 23.877 128.831 23.4852 128.831 22.6753C128.831 21.97 128.338 21.5782 127.43 21.5782C127.248 21.552 127.015 21.5782 126.729 21.6043ZM130.44 18.8613H131.115V24.4778H130.44V18.8613Z" fill="#3E2935"/>
<path d="M134.309 18.8613H134.983V23.8509H137.111V18.8613H137.786V23.8509H139.913V18.8613H140.588V24.4778H134.309V18.8613Z" fill="#3E2935"/>
<path d="M147.231 19.4883H145.181L145.077 20.5593C144.74 24.1382 143.987 24.5823 143.131 24.4778V23.7986C143.52 23.8509 144.195 23.6419 144.454 19.9846L144.532 18.8613H147.879V24.4778H147.205V19.4883H147.231Z" fill="#3E2935"/>
<path d="M153.717 22.3887H152.679L151.226 24.4786H150.447L152.004 22.2581C151.433 22.023 150.914 21.4744 150.914 20.6907C150.914 19.6719 151.589 18.8359 153.094 18.8359C153.457 18.8359 154.08 18.8621 154.391 18.8621V24.4786H153.717V22.3887ZM153.717 21.7617V19.5151C153.535 19.5151 153.198 19.489 152.964 19.489C152.082 19.489 151.641 20.0115 151.641 20.6646C151.641 21.2654 152.108 21.6834 152.601 21.7617H153.717Z" fill="#3E2935"/>
<path d="M157.584 18.8613H160.75V19.5144H158.285V21.343H160.516V21.9961H158.285V23.877H160.827V24.5301H157.584V18.8613Z" fill="#3E2935"/>
<path d="M163.68 18.8621C163.991 18.8621 164.692 18.8359 165.211 18.8359C166.534 18.8359 167.001 19.4368 167.001 20.2205C167.001 20.9258 166.586 21.3438 166.041 21.5266V21.5528C166.742 21.6573 167.209 22.1275 167.209 22.885C167.209 24.0345 166.326 24.5047 165.185 24.5047C164.692 24.5047 164.017 24.4786 163.68 24.4786V18.8621ZM164.38 19.489V21.3176H165.263C165.859 21.3176 166.352 20.978 166.352 20.3772C166.352 19.8025 165.963 19.489 165.211 19.489C164.899 19.489 164.562 19.489 164.38 19.489ZM164.38 21.9185V23.8255C164.562 23.8516 164.925 23.8516 165.237 23.8516C166.067 23.8516 166.534 23.512 166.534 22.8328C166.534 22.232 166.067 21.9185 165.263 21.9185H164.38Z" fill="#3E2935"/>
<path d="M171.831 18.8359H172.401L174.815 24.5047H174.088L173.361 22.8067H170.819L170.118 24.5047H169.443L171.831 18.8359ZM171.078 22.1275H173.102L172.09 19.7241L171.078 22.1275Z" fill="#3E2935"/>
</svg>
