<svg width="178" height="37" viewBox="0 0 178 37" fill="none" xmlns="http://www.w3.org/2000/svg">
<path d="M17.2861 0C7.72698 0 0 8.13547 0 18.2C0 28.2645 7.72698 36.3999 17.2861 36.3999C26.8453 36.3999 34.5723 28.2645 34.5723 18.2C34.5723 8.13547 26.7656 0 17.2861 0ZM14.8167 25.9161L13.5421 29.858C8.76256 28.1806 5.57617 23.4 5.57617 18.0322C5.57617 12.6645 8.76256 7.96772 13.6218 6.20644L14.8964 10.1484C11.71 11.2387 9.63881 14.4258 9.63881 17.9483C9.55916 21.6387 11.6303 24.8258 14.8167 25.9161ZM20.7912 29.9419L19.5963 25.9999C22.8623 24.9096 25.0131 21.7225 25.0131 18.1161C25.0131 14.5096 22.8623 11.4064 19.6759 10.3161L20.9505 6.29031C25.8097 7.96772 29.0758 12.7484 29.0758 18.1161C28.9961 23.5677 25.6504 28.3483 20.7912 29.9419Z" fill="#08C2F5"/>
<path d="M175.49 21.3868L177.402 23.819C175.41 25.9997 172.941 26.5868 170.949 26.5868C169.038 26.5868 167.683 26.2513 166.488 25.6642C163.939 24.3223 162.665 21.6384 162.665 18.3674C162.665 13.4189 165.851 9.72852 170.551 9.72852C175.809 9.72852 178.358 13.8383 177.959 19.2061H166.01C166.09 20.548 166.807 21.8061 167.843 22.4771C168.719 23.0642 169.755 23.3158 171.109 23.3158C172.622 23.3997 174.136 22.8126 175.49 21.3868ZM166.17 16.3544H174.614C174.375 14.4254 172.861 12.7479 170.471 12.7479C167.922 12.7479 166.409 14.5931 166.17 16.3544ZM85.8729 26.1675H90.1745L83.4035 17.8641L90.0949 10.064H85.8729L80.7747 16.2705H79.2612V10.064H75.9951V26.0836H79.2612V19.7093H80.7747L85.8729 26.1675ZM99.9727 12.9995C97.1846 12.9995 95.3524 15.2641 95.3524 18.1157C95.3524 20.9674 97.1846 23.2319 99.9727 23.2319C102.761 23.2319 104.513 21.0513 104.513 18.1157C104.513 15.348 102.84 12.9995 99.9727 12.9995ZM100.53 9.72852C104.832 9.72852 108.018 13.2511 108.018 18.1157C108.018 22.8965 104.912 26.5868 100.53 26.5868C98.4591 26.5868 96.7863 25.832 95.5914 24.49V32.8773H92.2457V10.1479H95.5117V12.0769C96.7863 10.4834 98.3795 9.72852 100.53 9.72852ZM143.865 10.1479H130.243V13.335H135.421V26.1675H138.767V13.335H143.945V10.1479H143.865ZM73.685 10.1479H60.0632V13.335H65.2411V26.1675H68.5071V13.335H73.685V10.1479ZM56.0006 18.1996C56.0006 15.1802 54.0091 12.9995 51.221 12.9995C48.5126 12.9995 46.4414 15.1802 46.4414 18.1996C46.4414 21.219 48.4329 23.3997 51.221 23.3997C53.9294 23.3997 56.0006 21.219 56.0006 18.1996ZM43.0957 18.1996C43.0957 13.4189 46.6007 9.81239 51.3006 9.81239C55.9209 9.81239 59.5056 13.4189 59.5056 18.1996C59.5056 22.9803 56.0006 26.6707 51.3006 26.6707C46.6007 26.5868 43.0957 22.9803 43.0957 18.1996ZM160.036 10.1479V26.1675H156.77V15.8512L148.804 26.1675H146.175V10.1479H149.441V20.4642L157.407 10.1479H160.036ZM128.013 26.1675H124.747V10.1479H128.013V26.1675ZM119.489 20.7158C119.489 19.29 118.533 18.2835 117.259 18.2835H113.913V23.2319H117.259C118.533 23.2319 119.489 22.1416 119.489 20.7158ZM122.835 20.7158C122.835 23.9029 120.605 26.1675 117.418 26.1675H110.727V10.1479H113.993V15.348H117.737C120.843 15.348 122.835 17.4448 122.835 20.7158Z" fill="black"/>
</svg>
