<svg width="251" height="148" viewBox="0 0 251 148" fill="none" xmlns="http://www.w3.org/2000/svg">
<path d="M55.8632 29.8474L74.4345 0.299438H37.3496L55.8632 29.8474Z" fill="#0060F0"/>
<path d="M55.8632 34.0685L37.3496 63.6735H74.4345L55.8632 34.0685Z" fill="#0060F0"/>
<path d="M113.653 31.9579L143.529 50.3256V13.6473L113.653 31.9579Z" fill="#0060F0"/>
<g clip-path="url(#clip0)">
<g clip-path="url(#clip1)">
<path d="M2.11312 21.8394C-3.73854 38.7256 5.35141 57.0752 22.3951 62.8165C39.4387 68.5578 57.9595 59.6081 63.7543 42.722C69.5491 25.8358 60.516 7.54249 43.5292 1.74491C26.4855 -4.05267 7.96477 4.95328 2.11312 21.8394ZM27.3377 20.6011C33.8143 17.5616 41.5976 20.3197 44.7222 26.7364C47.8469 33.1532 45.0063 40.8645 38.5297 43.9603C32.0531 47.0561 24.2699 44.2417 21.1452 37.825C18.0773 31.352 20.8611 23.6969 27.3377 20.6011Z" fill="url(#paint0_radial)"/>
<path d="M77.9574 -3.3781e-05C60.0048 0.337689 45.6881 15.0286 45.9722 32.8717C46.313 50.7147 61.141 64.8991 79.1505 64.5614C97.1599 64.2236 111.477 49.5327 111.136 31.6896C110.795 13.9029 95.9669 -0.28147 77.9574 -3.3781e-05ZM85.2862 43.3411C79.1505 47.056 71.14 45.086 67.3904 38.9507C63.6407 32.8717 65.6292 24.9352 71.8217 21.2202C77.9574 17.5053 85.9679 19.4753 89.7175 25.6106C93.4103 31.6896 91.4787 39.6261 85.2862 43.3411Z" fill="url(#paint1_radial)"/>
</g>
</g>
<path d="M12.161 84.107C14.6189 84.047 17.0169 85.0078 18.7554 86.7492C20.494 88.4306 21.5131 90.7725 21.4532 93.2346C21.5131 95.6366 20.494 97.9785 18.7554 99.6599C17.0169 101.401 14.6189 102.362 12.161 102.302H8.20432V110.649H2.14941V84.107H12.161ZM12.161 96.6574C13.0602 96.6574 13.8995 96.2971 14.499 95.6966C15.0985 95.0361 15.3983 94.1954 15.3983 93.2946C15.3983 92.3939 15.0985 91.5532 14.499 90.8326C13.8995 90.1721 13.0602 89.8118 12.161 89.8718H8.20432V96.6574H12.161Z" fill="#0060F0"/>
<path d="M43.5746 108.727C41.6562 110.349 39.1983 111.189 36.2008 111.189C33.2034 111.189 30.7454 110.349 28.827 108.727C26.9087 107.046 25.8296 104.644 25.9495 102.062V84.0469H32.0044V101.521C32.0044 103.983 33.3832 105.244 36.2008 105.244C39.0185 105.244 40.3973 103.983 40.3973 101.521V84.1069H46.4522V102.122C46.5721 104.644 45.493 107.106 43.5746 108.727Z" fill="#0060F0"/>
<path d="M58.4419 104.824H67.9139V110.649H52.387V84.1071H58.4419V104.824V104.824Z" fill="#0060F0"/>
<path d="M82.0622 111.189C79.6643 111.249 77.3262 110.649 75.2879 109.448C73.5494 108.307 72.1706 106.626 71.4512 104.644L76.6668 101.581C77.5061 103.923 79.7842 105.365 82.2421 105.244C84.6401 105.244 85.8391 104.524 85.8391 103.083C85.8391 102.302 85.3595 101.581 84.6401 101.281C83.2612 100.621 81.8224 100.08 80.3237 99.7199C79.3046 99.4797 78.3454 99.1194 77.3862 98.6991C76.4869 98.2787 75.7076 97.7983 74.9282 97.1978C74.1489 96.5373 73.5494 95.7566 73.1298 94.8559C72.7101 93.835 72.5303 92.7541 72.5303 91.6132C72.4703 89.3313 73.4295 87.1695 75.1681 85.7283C76.9066 84.2871 79.1847 83.5065 81.4628 83.5065C83.501 83.4464 85.4794 83.9869 87.2179 85.0678C88.9564 86.1487 90.2753 87.6499 91.1746 89.5114L86.0789 92.5139C85.6592 91.6132 85.0597 90.8325 84.2804 90.232C83.4411 89.6916 82.4819 89.3913 81.4628 89.4514C80.6834 89.3913 79.964 89.6315 79.3645 90.0519C78.8849 90.3521 78.6451 90.8926 78.6451 91.433C78.6451 92.0936 79.0048 92.7541 79.5444 93.1745C80.1439 93.6549 81.4627 94.1953 83.4411 94.7358C84.5202 95.036 85.2995 95.3363 85.899 95.5164C86.6784 95.8167 87.3977 96.1169 88.1171 96.5373C89.6159 97.1978 90.8149 98.5189 91.4144 100.08C91.834 100.981 92.0139 102.002 92.0139 102.963C92.1338 105.305 91.1146 107.526 89.2562 108.968C87.3378 110.469 84.9998 111.189 82.0622 111.189Z" fill="#0060F0"/>
<path d="M113.715 110.649L112.397 106.445H102.565L101.246 110.649H94.5916L103.584 84.0469H111.317L120.31 110.649H113.715ZM104.363 100.801H110.598L107.481 91.0727L104.363 100.801Z" fill="#0060F0"/>
<path d="M138.535 110.649L133.499 101.942H130.621V110.649H124.566V84.107H135.177C137.575 84.047 139.914 85.0078 141.592 86.7492C143.331 88.4306 144.29 90.7725 144.23 93.2346C144.23 94.8559 143.75 96.4172 142.851 97.7383C141.952 99.1195 140.753 100.2 139.314 100.921L144.949 110.649H138.535V110.649ZM130.621 89.8118V96.6574H135.177C136.017 96.6574 136.796 96.2971 137.276 95.6966C137.875 95.0361 138.175 94.1954 138.175 93.2946C138.175 92.3939 137.875 91.5532 137.276 90.8326C136.736 90.1721 135.957 89.8118 135.177 89.8118H130.621V89.8118Z" fill="#0060F0"/>
<path d="M12.161 120.858C14.6189 120.797 17.0169 121.758 18.7554 123.5C22.2925 127.043 22.3524 132.747 18.8154 136.35L18.7554 136.41C17.0169 138.152 14.6189 139.113 12.161 139.053H8.20432V147.399H2.14941V120.858H12.161ZM12.161 133.348C13.0602 133.348 13.8995 132.988 14.499 132.387C15.698 131.006 15.698 128.904 14.499 127.523C13.8995 126.862 13.0602 126.502 12.161 126.502H8.20432V133.348H12.161V133.348Z" fill="#0060F0"/>
<path d="M39.9776 147.399L35.0018 138.692H32.1242V147.399H26.0693V120.857H36.6804C41.6562 120.857 45.7328 124.881 45.7928 129.865C45.7928 129.925 45.7928 129.925 45.7928 129.985C45.7928 131.606 45.3131 133.168 44.4139 134.489C43.5147 135.87 42.3157 136.951 40.8769 137.671L46.5121 147.399H39.9776ZM32.0643 126.502V133.348H36.6205C37.4598 133.348 38.2391 132.987 38.7187 132.387C39.9177 131.006 39.9177 128.904 38.7187 127.523C38.1792 126.862 37.3998 126.502 36.6205 126.502H32.0643V126.502Z" fill="#0060F0"/>
<path d="M72.8898 143.916C67.4943 149.321 58.8016 149.381 53.4062 143.976C50.7684 141.334 49.3296 137.791 49.3296 134.068C49.3296 126.442 55.5044 120.257 63.118 120.257C70.7316 120.257 76.9064 126.442 76.9064 134.068C77.0263 137.791 75.5275 141.334 72.8898 143.916ZM57.6026 139.773C59.0414 141.214 61.0797 142.055 63.118 141.995C65.1563 142.055 67.1945 141.274 68.6333 139.773C70.1321 138.272 70.9714 136.23 70.8515 134.068C70.9114 131.967 70.1321 129.865 68.6333 128.364C67.1945 126.922 65.2162 126.082 63.118 126.142C61.0797 126.082 59.0414 126.862 57.6026 128.364C56.1039 129.865 55.3245 131.967 55.3845 134.068C55.3245 136.23 56.1039 138.272 57.6026 139.773Z" fill="#0060F0"/>
<path d="M92.4934 120.857C95.9705 120.797 99.2677 122.179 101.666 124.701C104.124 127.223 105.443 130.646 105.383 134.189C105.502 137.731 104.124 141.154 101.666 143.676C99.2677 146.198 95.9705 147.58 92.4934 147.46H81.8823V120.857H92.4934ZM92.4934 141.575C94.4118 141.635 96.2103 140.914 97.5891 139.593C98.968 138.152 99.6274 136.17 99.5674 134.189C99.6873 132.207 98.968 130.225 97.5891 128.784C96.2702 127.403 94.4118 126.622 92.4934 126.742H87.9372V141.635L92.4934 141.575Z" fill="#0060F0"/>
<path d="M127.504 145.478C125.585 147.099 123.128 147.94 120.13 147.94C117.133 147.94 114.675 147.099 112.756 145.478C110.838 143.796 109.759 141.394 109.879 138.812V120.797H115.934V138.272C115.934 140.734 117.312 141.995 120.13 141.995C122.888 141.995 124.327 140.734 124.327 138.272V120.857H130.381V138.872C130.501 141.394 129.422 143.856 127.504 145.478Z" fill="#0060F0"/>
<path d="M148.906 147.94C141.472 148.12 135.297 142.295 135.117 134.909C135.117 134.669 135.117 134.429 135.117 134.128C135.117 126.502 141.292 120.317 148.906 120.317C151.244 120.317 153.522 120.918 155.5 121.998C157.479 123.019 159.157 124.581 160.296 126.502L155.081 129.565C154.481 128.544 153.642 127.703 152.563 127.163C149.505 125.661 145.788 126.142 143.271 128.484C141.832 130.045 141.112 132.087 141.172 134.249C141.052 136.35 141.832 138.452 143.271 139.953C145.788 142.295 149.505 142.776 152.563 141.274C153.642 140.734 154.481 139.893 155.081 138.872L160.296 141.935C159.157 143.857 157.539 145.418 155.56 146.439C153.522 147.399 151.244 148 148.906 147.94Z" fill="#0060F0"/>
<path d="M182.478 120.857V126.682H175.643V147.399H169.588V126.682H162.754V120.857H182.478V120.857Z" fill="#0060F0"/>
<path d="M186.614 120.857H192.669V147.399H186.614V120.857Z" fill="#0060F0"/>
<path d="M221.205 143.917C215.809 149.321 207.117 149.321 201.721 143.977C199.084 141.394 197.645 137.852 197.645 134.128C197.645 126.502 203.82 120.317 211.433 120.317C219.047 120.317 225.222 126.502 225.222 134.128C225.341 137.791 223.843 141.394 221.205 143.917ZM205.918 139.773C207.357 141.214 209.395 142.055 211.433 141.995C213.471 142.055 215.45 141.274 216.949 139.773C218.447 138.272 219.287 136.23 219.167 134.068C219.227 131.967 218.447 129.865 216.949 128.364C215.51 126.922 213.531 126.142 211.433 126.202C209.395 126.142 207.357 126.922 205.918 128.424C204.419 129.925 203.64 132.027 203.7 134.128C203.64 136.23 204.419 138.332 205.918 139.773Z" fill="#0060F0"/>
<path d="M244.945 120.857H251V147.399H246.444L236.192 132.987V147.399H230.137V120.857H234.694L244.945 135.269V120.857Z" fill="#0060F0"/>
<defs>
<radialGradient id="paint0_radial" cx="0" cy="0" r="1" gradientUnits="userSpaceOnUse" gradientTransform="translate(57.7649 55.9474) scale(60.2258 57.8969)">
<stop offset="0.2865" stop-color="#FF5019"/>
<stop offset="0.8154" stop-color="#FF9233"/>
</radialGradient>
<radialGradient id="paint1_radial" cx="0" cy="0" r="1" gradientUnits="userSpaceOnUse" gradientTransform="translate(110.379 32.028) rotate(-38.6721) scale(77.5661 77.4117)">
<stop stop-color="white"/>
<stop offset="0.4596" stop-color="#FF9233"/>
<stop offset="0.7338" stop-color="#FF5019"/>
</radialGradient>
<clipPath id="clip0">
<rect width="143.824" height="63.9222" fill="white" transform="translate(0.352051)"/>
</clipPath>
<clipPath id="clip1">
<rect width="110.784" height="64.5614" fill="white" transform="translate(0.352051)"/>
</clipPath>
</defs>
</svg>
