<svg width="341" height="548" viewBox="0 0 341 548" fill="none" xmlns="http://www.w3.org/2000/svg">
<g clip-path="url(#clip0)">
<path d="M61.3125 71.1657C61.3125 75.8909 62.2123 79.7532 63.3167 79.7532C64.4211 79.7532 65.3209 75.9319 65.3209 71.1657C65.3209 66.4405 64.4211 62.5781 63.3167 62.5781C62.2123 62.6192 61.3125 66.4405 61.3125 71.1657Z" fill="#3F327A"/>
<path d="M63.3164 62.6191H76.5686V78.767L63.3164 79.7531V62.6191Z" fill="#3F327A"/>
<path d="M156.041 156.959C155.264 167.313 153.26 176.887 149.21 183.256C149.21 183.256 108.554 169.162 86.303 145.495C79.8405 138.592 77.141 132.799 76.5684 128.032C97.2648 147.755 122.624 162.752 149.742 172.08C151.664 167.067 154.2 162.054 156.041 156.959Z" fill="#F6DEF8"/>
<path d="M86.3022 111.145L133.83 147.878V94.6685L152.645 101.202C152.645 101.202 158.003 131.525 156.081 157C154.24 162.095 151.705 167.108 149.741 172.121C122.623 162.752 97.3049 147.796 76.5676 128.074C75.1769 116.487 86.3022 111.145 86.3022 111.145Z" fill="#FEF2FE"/>
<path d="M68.9609 55.7164L153.342 35.2131V126.882L68.9609 97.9556V55.7164Z" fill="#322666"/>
<path d="M149.66 136.99C157.363 136.99 163.608 110.058 163.608 76.836C163.608 43.6139 157.363 16.6821 149.66 16.6821C141.957 16.6821 135.713 43.6139 135.713 76.836C135.713 110.058 141.957 136.99 149.66 136.99Z" fill="#3F327A"/>
<path d="M202.546 7.396L149.66 16.682V136.99L202.546 152.152V7.396Z" fill="#3F327A"/>
<path d="M205.9 163.78C216.404 163.78 224.92 127.116 224.92 81.8898C224.92 36.6633 216.404 0 205.9 0C195.396 0 186.881 36.6633 186.881 81.8898C186.881 127.116 195.396 163.78 205.9 163.78Z" fill="#322666"/>
<path d="M68.961 97.9555C71.6717 97.9555 73.8692 88.4999 73.8692 76.8359C73.8692 65.1719 71.6717 55.7163 68.961 55.7163C66.2502 55.7163 64.0527 65.1719 64.0527 76.8359C64.0527 88.4999 66.2502 97.9555 68.961 97.9555Z" fill="#322666"/>
<path d="M323.003 4.31445H246.639V159.465H323.003V4.31445Z" fill="#322666"/>
<path d="M274.329 0H206.105L205.9 163.78H274.329V0Z" fill="#322666"/>
<path d="M274.33 163.78C284.834 163.78 293.349 127.116 293.349 81.8898C293.349 36.6633 284.834 0 274.33 0C263.826 0 255.311 36.6633 255.311 81.8898C255.311 127.116 263.826 163.78 274.33 163.78Z" fill="#3F327A"/>
<path d="M255.311 81.8899C255.311 121.828 261.937 155.069 270.731 162.301C278.584 155.85 284.719 128.526 285.905 94.2576C286.069 90.2309 286.11 86.081 286.11 81.8488C286.11 80.6162 286.11 79.3835 286.069 78.1508C286.028 76.1375 286.028 74.1652 285.946 72.2341C285.496 55.9629 283.942 41.1299 281.611 29.2142C278.87 15.0797 275.025 5.05404 270.649 1.43823C268.685 3.04069 266.845 5.95799 265.127 9.94359C262.182 16.8876 259.687 27.1187 257.969 39.5275C257.724 41.171 257.519 42.8556 257.315 44.5403C256.742 49.2244 256.292 54.155 255.965 59.2911C255.556 66.5227 255.311 74.0831 255.311 81.8899Z" fill="#634AC9"/>
<path d="M305.006 81.8898C305.006 86.2863 305.088 90.6006 305.251 94.7917C305.333 96.8872 305.415 98.9006 305.538 100.955C305.906 107.406 306.478 113.528 307.215 119.239C309.71 138.88 314.127 153.343 319.403 157.945C319.485 157.986 319.526 158.068 319.608 158.109C319.649 158.15 319.731 158.192 319.771 158.233C320.262 158.602 320.712 158.89 321.203 159.096C321.367 159.178 321.489 159.219 321.653 159.26C322.103 159.424 322.594 159.506 323.044 159.506C326.398 159.506 329.588 155.521 332.288 148.536C333.596 145.166 334.783 141.058 335.846 136.373C336.173 134.894 336.5 133.333 336.828 131.73C338.668 122.239 340.018 110.775 340.632 98.2431C340.877 92.9838 341.041 87.519 341.041 81.9309C341.041 39.0754 332.983 4.35547 323.044 4.35547C322.798 4.35547 322.512 4.39656 322.267 4.43765C322.226 4.43765 322.185 4.47873 322.103 4.47873C321.939 4.51982 321.776 4.56091 321.653 4.602C321.489 4.64309 321.367 4.72527 321.203 4.76636C320.958 4.88962 320.712 4.9718 320.508 5.13615C320.385 5.21833 320.221 5.30051 320.099 5.42377C320.017 5.46486 319.935 5.54704 319.853 5.62922C319.771 5.67031 319.731 5.75248 319.649 5.79357C319.567 5.87575 319.526 5.91684 319.444 5.95793C313.064 11.5049 307.91 31.5151 305.906 57.6886C305.333 65.2489 305.006 73.4256 305.006 81.8898Z" fill="#634AC9"/>
<path d="M305.906 57.6062C305.333 65.2487 305.006 73.4253 305.006 81.8896C305.006 86.2861 305.088 90.6004 305.251 94.7915L330.815 124.704L336.787 131.689C338.627 122.198 339.977 110.734 340.591 98.2018L333.719 90.1484L305.906 57.6062Z" fill="#E4E0FF"/>
<path d="M258.051 39.5682L286.028 72.2748C285.578 56.0037 284.024 41.1707 281.692 29.255L265.209 9.98438C262.264 16.9284 259.769 27.1595 258.051 39.5682Z" fill="#E4E0FF"/>
<path d="M330.039 129.594L305.58 100.955C305.948 107.406 306.521 113.528 307.257 119.239L327.095 142.454L332.248 148.494C333.557 145.125 334.743 141.016 335.807 136.332L330.039 129.594Z" fill="#E4E0FF"/>
<path d="M256.047 59.3319L285.905 94.2984C286.069 90.2717 286.11 86.1217 286.11 81.8896C286.11 80.6569 286.11 79.4243 286.069 78.1916L257.356 44.5811C256.824 49.2652 256.374 54.1958 256.047 59.3319Z" fill="#E4E0FF"/>
<path d="M319.445 157.945C319.527 157.986 319.568 158.068 319.65 158.109C319.691 158.15 319.773 158.192 319.813 158.233C320.304 158.602 320.754 158.89 321.245 159.096C321.409 159.178 321.531 159.219 321.695 159.26C322.145 159.424 322.636 159.506 323.086 159.506C326.44 159.506 329.63 155.521 332.329 148.536C333.638 145.166 334.824 141.058 335.888 136.373C336.215 134.894 336.542 133.333 336.87 131.73C338.71 122.239 340.06 110.775 340.673 98.2431C340.919 92.9838 341.082 87.519 341.082 81.9309C341.082 39.0754 333.025 4.35547 323.086 4.35547C322.84 4.35547 322.554 4.39656 322.308 4.43765C322.268 4.43765 322.227 4.47873 322.145 4.47873C321.981 4.51982 321.818 4.56091 321.695 4.602C321.531 4.64309 321.409 4.72527 321.245 4.76636C321 4.88962 320.754 4.9718 320.55 5.13615C320.427 5.21833 320.263 5.30051 320.141 5.42377C320.059 5.46486 319.977 5.54704 319.895 5.62922C319.813 5.67031 319.773 5.75248 319.691 5.79357C319.609 5.83466 319.568 5.91684 319.486 5.95793C327.708 13.1485 333.884 44.458 333.884 81.972C333.884 84.7661 333.843 87.519 333.761 90.2309C333.434 102.927 332.411 114.679 330.857 124.786C330.612 126.43 330.325 128.074 330.039 129.635C329.18 134.401 328.198 138.716 327.094 142.537C324.885 150.015 322.308 155.439 319.445 157.945Z" fill="#3F327A"/>
<path d="M27.4453 91.2169L48.4689 89.9431C48.4689 89.9431 47.0783 95.3257 49.5733 100.626C42.3336 100.585 35.0531 98.0376 28.5906 94.2574L27.4453 91.2169Z" fill="#ED7E94"/>
<path d="M32.803 77.3289C35.1753 69.2344 46.7506 72.5626 52.5178 67.0156L57.6715 76.3017L53.2949 78.3561L55.8718 96.3941C55.8718 96.3941 54.3584 96.6406 51.9861 96.8049C41.8424 94.0109 30.2262 87.3134 32.803 77.3289Z" fill="#FF96A9"/>
<path d="M48.9599 60.5649L52.5183 67.0159C46.7512 72.5628 35.1759 69.2347 32.8036 77.3291C30.2268 87.3137 41.8429 94.0111 51.9866 96.8052C45.8513 97.2571 33.867 97.2161 27.4045 91.2582C18.447 82.9994 9.20312 68.454 9.20312 68.454L48.9599 60.5649Z" fill="#ED7E94"/>
<path d="M92.4797 239.917L156.491 542.412C156.491 542.412 68.6339 437.348 54.6045 278.704C40.4933 120.061 92.4797 239.917 92.4797 239.917Z" fill="#322666"/>
<path d="M36.9336 233.014C36.9336 233.014 25.1538 238.52 24.1312 253.6C23.1087 268.72 28.5895 278.992 28.5895 278.992C28.5895 278.992 11.8606 410.517 36.9745 542.371C36.9745 542.371 84.1345 326.039 83.3982 273.486C83.3982 273.486 95.0144 264.652 92.5194 239.835C89.9834 215.099 36.9336 233.014 36.9336 233.014Z" fill="#3F327A"/>
<path d="M42.1285 277.677C42.1285 277.677 26.6676 483.244 36.4431 539.823C12.0246 408.833 28.5491 279.033 28.5491 279.033C28.5491 279.033 23.0682 268.72 24.0907 253.641C25.1133 238.52 36.8931 233.055 36.8931 233.055C36.8931 233.055 19.6324 255.531 42.1285 277.677Z" fill="#322666"/>
<path d="M21.8008 72.9323C21.8008 72.9323 52.5591 73.1788 73.8281 45.6494C73.8281 45.6494 24.3367 48.9776 0 67.7962C0 67.7962 6.42161 84.0263 27.4452 91.2168L20.2874 79.3832C20.2874 79.3832 11.0435 73.713 15.9109 69.8507C20.7782 65.9883 21.8008 72.9323 21.8008 72.9323Z" fill="#322666"/>
<path d="M92.1532 234.411C92.235 236.178 92.3168 238.027 92.4804 239.876C92.4804 239.876 71.6204 262.187 36.9355 233.014C36.9355 233.014 37.0583 231.042 37.0992 227.837C52.3965 240.492 75.0153 244.889 92.1532 234.411Z" fill="#322666"/>
<path d="M4.04883 137.318C10.6341 150.261 19.837 161.684 31.2896 172.079C38.9791 179.27 41.0242 190.117 44.6236 200.39C49.2455 211.73 56.4034 224.098 69.2466 228.207C76.609 230.466 84.4213 231.165 92.029 230.425C92.0699 231.74 92.1108 233.055 92.1517 234.411C75.0138 244.889 52.395 240.492 37.0976 227.878C37.2613 216.948 36.6068 191.514 27.4448 179.804C17.1375 166.738 8.46624 154.411 4.04883 137.318Z" fill="#F6DEF8"/>
<path d="M69.2066 228.207C56.4042 224.098 49.2055 211.73 44.5836 200.39C40.9842 190.076 38.9391 179.27 31.2495 172.079C19.797 161.684 10.6349 150.261 4.00879 137.318C3.31345 134.648 2.74082 131.895 2.25 128.977L33.4173 106.913L53.7865 105.885L86.2627 111.104C86.2627 111.104 86.3036 111.145 86.4263 111.268C83.8495 117.966 80.5773 124.334 74.2784 128.279C56.3224 139.085 35.2988 130.333 16.3203 126.224C35.3806 140.647 51.2915 158.191 70.7608 172.079C78.9821 161.766 86.6717 150.96 91.7845 138.099C92.807 136.538 94.3613 135.51 95.3839 133.99C96.7336 131.771 97.6744 129.429 98.4515 127.087C102.787 134.524 106.714 143.934 106.836 154.083C107.164 175.983 90.9664 185.187 92.0299 230.466C84.4221 231.206 76.5689 230.508 69.2066 228.207Z" fill="#FEF2FE"/>
<path d="M91.7847 138.099C86.672 150.96 78.9824 161.807 70.7611 172.079C51.2918 158.191 35.3809 140.646 16.4023 126.224C35.3809 130.333 56.4045 139.085 74.3605 128.279C80.6594 124.334 83.9315 117.966 86.5084 111.268C87.5309 112.295 93.339 118.253 98.4518 127.005C97.6746 129.347 96.7339 131.689 95.3841 133.908C94.3616 135.51 92.8073 136.538 91.7847 138.099Z" fill="#F6DEF8"/>
<path d="M59.9219 128.443C80.7001 157.328 104.301 212.264 104.301 212.264L86.8354 247.847C90.5166 206.224 81.1091 164.437 59.9219 128.443Z" fill="#E5649A"/>
<path d="M59.9206 128.443C81.1079 164.437 90.5154 206.224 86.7933 247.847L86.7115 248.052L64.6653 218.427C76.036 179.804 58.7754 126.882 58.7754 126.882C59.1844 127.416 59.5525 127.909 59.9206 128.443Z" fill="#DB4A87"/>
<path d="M66.6692 178.284C45.0729 171.545 23.763 160.492 9.6109 143.112C6.91137 137.524 7.15678 132.059 12.1877 127.334C24.4992 115.665 61.761 151.371 61.761 151.371L92.8874 114.35C96.4868 118.87 101.231 122.732 106.59 125.362C97.8774 146.522 83.1118 163.41 66.6692 178.284Z" fill="#FEF2FE"/>
<path d="M66.6695 178.284C83.1121 163.41 97.9186 146.563 106.549 125.321C108.185 126.142 109.903 126.841 111.621 127.375C99.6774 157.698 70.9233 187.365 70.9233 187.365C70.9233 187.365 19.6322 163.985 9.57031 143.071C23.7633 160.451 45.0732 171.545 66.6695 178.284Z" fill="#F6DEF8"/>
<path d="M92.8477 114.309L96.0789 110.488C99.5556 114.473 103.809 117.842 108.472 120.308C107.859 121.992 107.245 123.677 106.55 125.321C101.192 122.691 96.447 118.829 92.8477 114.309Z" fill="#F6DEF8"/>
<path d="M113.379 122.485C112.848 124.129 112.234 125.731 111.621 127.375C109.862 126.8 108.185 126.101 106.549 125.32C107.203 123.677 107.858 121.992 108.471 120.308C110.066 121.129 111.702 121.869 113.379 122.485Z" fill="#F6DEF8"/>
<path d="M96.037 110.488L97.2231 109.091C90.3925 89.861 87.9793 67.18 93.7874 66.1528C93.8283 66.1528 93.9101 66.1528 93.951 66.1528C97.6322 73.9597 98.532 82.0953 99.4319 90.2308C104.054 88.1764 108.676 88.6694 113.257 90.765C118.369 93.3536 122.501 98.4896 119.924 104.16C117.879 107.242 112.234 107.776 111.702 108.803C110.803 112.789 109.657 116.651 108.389 120.349C103.767 117.842 99.5137 114.473 96.037 110.488Z" fill="#FF96A9"/>
<path d="M119.965 104.078C122.542 98.4076 118.411 93.2715 113.298 90.6829C108.676 88.6285 104.054 88.0943 99.4731 90.1487C98.5732 82.0132 97.6734 73.8776 93.9922 66.0708C99.6367 65.5366 100.986 87.7245 100.986 87.7245C100.986 87.7245 106.795 78.685 119.106 89.8611C136.448 105.639 115.711 113.816 115.711 113.816C115.139 116.651 114.361 119.568 113.421 122.444C111.744 121.828 110.067 121.089 108.472 120.226C109.78 116.528 110.885 112.665 111.785 108.68C112.275 107.694 117.92 107.201 119.965 104.078Z" fill="#ED7E94"/>
<path d="M34.0715 526.346L16.9336 548H112.644L34.0715 526.346Z" fill="#322666"/>
<path d="M144.466 526.346L132.809 548H232.282L144.466 526.346Z" fill="#322666"/>
<path d="M49.5317 100.585C50.3906 102.434 51.7404 104.283 53.8264 105.885L55.6261 121.869L33.4572 106.913L28.5898 94.2163C35.0115 98.0376 42.3329 100.544 49.5317 100.585Z" fill="#FF96A9"/>
<path d="M56.4856 122.896L68.5517 128.895L61.4348 108.063L65.4432 124.334L55.6267 121.869L51.7001 131.895L30.9219 114.309L52.7226 135.1L56.4856 122.896Z" fill="#F6DEF8"/>
<path d="M56.4863 122.896L62.5398 125.937L61.9262 132.182L55.0547 127.539L56.4863 122.896Z" fill="#E5649A"/>
</g>
<defs>
<clipPath id="clip0">
<rect width="341" height="548" fill="white"/>
</clipPath>
</defs>
</svg>
