<svg width="2020" height="697" viewBox="0 0 2020 697" fill="none" xmlns="http://www.w3.org/2000/svg">
<path d="M415.312 71.1657C415.312 75.8909 416.212 79.7532 417.317 79.7532C418.421 79.7532 419.321 75.9319 419.321 71.1657C419.321 66.4405 418.421 62.5781 417.317 62.5781C416.212 62.6192 415.312 66.4405 415.312 71.1657Z" fill="#3F327A"/>
<path d="M417.316 62.6191H430.569V78.767L417.316 79.7531V62.6191Z" fill="#3F327A"/>
<path d="M510.041 156.959C509.264 167.313 507.26 176.887 503.21 183.256C503.21 183.256 462.554 169.162 440.303 145.495C433.841 138.592 431.141 132.799 430.568 128.032C451.265 147.755 476.624 162.752 503.742 172.08C505.664 167.067 508.2 162.054 510.041 156.959Z" fill="#F6DEF8"/>
<path d="M440.302 111.145L487.83 147.878V94.6685L506.645 101.202C506.645 101.202 512.003 131.525 510.081 157C508.24 162.095 505.705 167.108 503.741 172.121C476.623 162.752 451.305 147.796 430.568 128.074C429.177 116.487 440.302 111.145 440.302 111.145Z" fill="#FEF2FE"/>
<path d="M422.961 55.7164L507.342 35.2131V126.882L422.961 97.9556V55.7164Z" fill="#322666"/>
<path d="M503.66 136.99C511.363 136.99 517.608 110.058 517.608 76.836C517.608 43.6139 511.363 16.6821 503.66 16.6821C495.957 16.6821 489.713 43.6139 489.713 76.836C489.713 110.058 495.957 136.99 503.66 136.99Z" fill="#3F327A"/>
<path d="M556.546 7.396L503.66 16.682V136.99L556.546 152.152V7.396Z" fill="#3F327A"/>
<path d="M559.9 163.78C570.404 163.78 578.92 127.116 578.92 81.8898C578.92 36.6633 570.404 0 559.9 0C549.396 0 540.881 36.6633 540.881 81.8898C540.881 127.116 549.396 163.78 559.9 163.78Z" fill="#322666"/>
<path d="M422.961 97.9555C425.672 97.9555 427.869 88.4999 427.869 76.8359C427.869 65.1719 425.672 55.7163 422.961 55.7163C420.25 55.7163 418.053 65.1719 418.053 76.8359C418.053 88.4999 420.25 97.9555 422.961 97.9555Z" fill="#322666"/>
<path d="M677.003 4.31445H600.639V159.465H677.003V4.31445Z" fill="#322666"/>
<path d="M628.329 0H560.105L559.9 163.78H628.329V0Z" fill="#322666"/>
<path d="M628.33 163.78C638.834 163.78 647.349 127.116 647.349 81.8898C647.349 36.6633 638.834 0 628.33 0C617.826 0 609.311 36.6633 609.311 81.8898C609.311 127.116 617.826 163.78 628.33 163.78Z" fill="#3F327A"/>
<path d="M609.311 81.8899C609.311 121.828 615.937 155.069 624.731 162.301C632.584 155.85 638.719 128.526 639.905 94.2576C640.069 90.2309 640.11 86.081 640.11 81.8488C640.11 80.6162 640.11 79.3835 640.069 78.1508C640.028 76.1375 640.028 74.1652 639.946 72.2341C639.496 55.9629 637.942 41.1299 635.611 29.2142C632.87 15.0797 629.025 5.05404 624.649 1.43823C622.685 3.04069 620.845 5.95799 619.127 9.94359C616.182 16.8876 613.687 27.1187 611.969 39.5275C611.724 41.171 611.519 42.8556 611.315 44.5403C610.742 49.2244 610.292 54.155 609.965 59.2911C609.556 66.5227 609.311 74.0831 609.311 81.8899Z" fill="#634AC9"/>
<path d="M659.006 81.8898C659.006 86.2863 659.088 90.6006 659.251 94.7917C659.333 96.8872 659.415 98.9006 659.538 100.955C659.906 107.406 660.478 113.528 661.215 119.239C663.71 138.88 668.127 153.343 673.403 157.945C673.485 157.986 673.526 158.068 673.608 158.109C673.649 158.15 673.731 158.192 673.771 158.233C674.262 158.602 674.712 158.89 675.203 159.096C675.367 159.178 675.489 159.219 675.653 159.26C676.103 159.424 676.594 159.506 677.044 159.506C680.398 159.506 683.588 155.521 686.288 148.536C687.596 145.166 688.783 141.058 689.846 136.373C690.173 134.894 690.5 133.333 690.828 131.73C692.668 122.239 694.018 110.775 694.632 98.2431C694.877 92.9838 695.041 87.519 695.041 81.9309C695.041 39.0754 686.983 4.35547 677.044 4.35547C676.798 4.35547 676.512 4.39656 676.267 4.43765C676.226 4.43765 676.185 4.47873 676.103 4.47873C675.939 4.51982 675.776 4.56091 675.653 4.602C675.489 4.64309 675.367 4.72527 675.203 4.76636C674.958 4.88962 674.712 4.9718 674.508 5.13615C674.385 5.21833 674.221 5.30051 674.099 5.42377C674.017 5.46486 673.935 5.54704 673.853 5.62922C673.771 5.67031 673.731 5.75248 673.649 5.79357C673.567 5.87575 673.526 5.91684 673.444 5.95793C667.064 11.5049 661.91 31.5151 659.906 57.6886C659.333 65.2489 659.006 73.4256 659.006 81.8898Z" fill="#634AC9"/>
<path d="M659.906 57.6064C659.333 65.2489 659.006 73.4256 659.006 81.8899C659.006 86.2864 659.088 90.6007 659.251 94.7917L684.815 124.704L690.787 131.689C692.627 122.198 693.977 110.734 694.591 98.2021L687.719 90.1487L659.906 57.6064Z" fill="#E4E0FF"/>
<path d="M612.051 39.5682L640.028 72.2748C639.578 56.0037 638.024 41.1707 635.692 29.255L619.209 9.98438C616.264 16.9284 613.769 27.1595 612.051 39.5682Z" fill="#E4E0FF"/>
<path d="M684.039 129.594L659.58 100.955C659.948 107.406 660.521 113.528 661.257 119.24L681.095 142.455L686.248 148.495C687.557 145.125 688.743 141.017 689.807 136.332L684.039 129.594Z" fill="#E4E0FF"/>
<path d="M610.047 59.3319L639.905 94.2984C640.069 90.2717 640.11 86.1217 640.11 81.8896C640.11 80.6569 640.11 79.4243 640.069 78.1916L611.356 44.5811C610.824 49.2652 610.374 54.1958 610.047 59.3319Z" fill="#E4E0FF"/>
<path d="M673.445 157.945C673.527 157.986 673.568 158.068 673.65 158.109C673.691 158.15 673.773 158.192 673.813 158.233C674.304 158.602 674.754 158.89 675.245 159.096C675.409 159.178 675.531 159.219 675.695 159.26C676.145 159.424 676.636 159.506 677.086 159.506C680.44 159.506 683.63 155.521 686.329 148.536C687.638 145.166 688.824 141.058 689.888 136.373C690.215 134.894 690.542 133.333 690.87 131.73C692.71 122.239 694.06 110.775 694.673 98.2431C694.919 92.9838 695.082 87.519 695.082 81.9309C695.082 39.0754 687.025 4.35547 677.086 4.35547C676.84 4.35547 676.554 4.39656 676.308 4.43765C676.268 4.43765 676.227 4.47873 676.145 4.47873C675.981 4.51982 675.818 4.56091 675.695 4.602C675.531 4.64309 675.409 4.72527 675.245 4.76636C675 4.88962 674.754 4.9718 674.55 5.13615C674.427 5.21833 674.263 5.30051 674.141 5.42377C674.059 5.46486 673.977 5.54704 673.895 5.62922C673.813 5.67031 673.773 5.75248 673.691 5.79357C673.609 5.83466 673.568 5.91684 673.486 5.95793C681.708 13.1485 687.884 44.458 687.884 81.972C687.884 84.7661 687.843 87.519 687.761 90.2309C687.434 102.927 686.411 114.679 684.857 124.786C684.612 126.43 684.325 128.074 684.039 129.635C683.18 134.401 682.198 138.716 681.094 142.537C678.885 150.015 676.308 155.439 673.445 157.945Z" fill="#3F327A"/>
<path d="M381.445 91.2169L402.469 89.9431C402.469 89.9431 401.078 95.3257 403.573 100.626C396.334 100.585 389.053 98.0376 382.591 94.2574L381.445 91.2169Z" fill="#ED7E94"/>
<path d="M386.803 77.3289C389.175 69.2344 400.751 72.5626 406.518 67.0156L411.671 76.3017L407.295 78.3561L409.872 96.3941C409.872 96.3941 408.358 96.6406 405.986 96.8049C395.842 94.0109 384.226 87.3134 386.803 77.3289Z" fill="#FF96A9"/>
<path d="M402.96 60.5649L406.518 67.0159C400.751 72.5628 389.176 69.2347 386.804 77.3291C384.227 87.3137 395.843 94.0111 405.987 96.8052C399.851 97.2571 387.867 97.2161 381.405 91.2582C372.447 82.9994 363.203 68.454 363.203 68.454L402.96 60.5649Z" fill="#ED7E94"/>
<path d="M446.48 239.917L510.491 542.412C510.491 542.412 422.634 437.348 408.604 278.704C394.493 120.061 446.48 239.917 446.48 239.917Z" fill="#322666"/>
<path d="M390.934 233.014C390.934 233.014 379.154 238.52 378.131 253.6C377.109 268.72 382.59 278.992 382.59 278.992C382.59 278.992 365.861 410.517 390.974 542.371C390.974 542.371 438.134 326.039 437.398 273.486C437.398 273.486 449.014 264.652 446.519 239.835C443.983 215.099 390.934 233.014 390.934 233.014Z" fill="#3F327A"/>
<path d="M396.129 277.677C396.129 277.677 380.668 483.244 390.443 539.823C366.025 408.833 382.549 279.033 382.549 279.033C382.549 279.033 377.068 268.72 378.091 253.641C379.113 238.52 390.893 233.055 390.893 233.055C390.893 233.055 373.632 255.531 396.129 277.677Z" fill="#322666"/>
<path d="M375.801 72.9323C375.801 72.9323 406.559 73.1788 427.828 45.6494C427.828 45.6494 378.337 48.9776 354 67.7962C354 67.7962 360.422 84.0263 381.445 91.2168L374.287 79.3832C374.287 79.3832 365.044 73.713 369.911 69.8507C374.778 65.9883 375.801 72.9323 375.801 72.9323Z" fill="#322666"/>
<path d="M446.153 234.411C446.235 236.178 446.317 238.027 446.48 239.876C446.48 239.876 425.62 262.187 390.936 233.014C390.936 233.014 391.058 231.042 391.099 227.837C406.396 240.492 429.015 244.889 446.153 234.411Z" fill="#322666"/>
<path d="M358.049 137.318C364.634 150.261 373.837 161.684 385.29 172.079C392.979 179.27 395.024 190.117 398.624 200.39C403.246 211.73 410.403 224.098 423.247 228.207C430.609 230.466 438.421 231.165 446.029 230.425C446.07 231.74 446.111 233.055 446.152 234.411C429.014 244.889 406.395 240.492 391.098 227.878C391.261 216.948 390.607 191.514 381.445 179.804C371.137 166.738 362.466 154.411 358.049 137.318Z" fill="#F6DEF8"/>
<path d="M423.207 228.207C410.404 224.098 403.205 211.73 398.584 200.39C394.984 190.076 392.939 179.27 385.25 172.079C373.797 161.684 364.635 150.261 358.009 137.318C357.313 134.648 356.741 131.895 356.25 128.977L387.417 106.913L407.787 105.885L440.263 111.104C440.263 111.104 440.304 111.145 440.426 111.268C437.849 117.966 434.577 124.334 428.278 128.279C410.322 139.085 389.299 130.333 370.32 126.224C389.381 140.647 405.291 158.191 424.761 172.079C432.982 161.766 440.672 150.96 445.784 138.099C446.807 136.538 448.361 135.51 449.384 133.99C450.734 131.771 451.674 129.429 452.451 127.087C456.787 134.524 460.714 143.934 460.836 154.083C461.164 175.983 444.966 185.187 446.03 230.466C438.422 231.206 430.569 230.508 423.207 228.207Z" fill="#FEF2FE"/>
<path d="M445.785 138.099C440.672 150.96 432.982 161.807 424.761 172.079C405.292 158.191 389.381 140.646 370.402 126.224C389.381 130.333 410.405 139.085 428.36 128.279C434.659 124.334 437.932 117.966 440.508 111.268C441.531 112.295 447.339 118.253 452.452 127.005C451.675 129.347 450.734 131.689 449.384 133.908C448.362 135.51 446.807 136.538 445.785 138.099Z" fill="#F6DEF8"/>
<path d="M413.922 128.443C434.7 157.328 458.301 212.264 458.301 212.264L440.835 247.847C444.517 206.224 435.109 164.437 413.922 128.443Z" fill="#E5649A"/>
<path d="M413.921 128.443C435.108 164.437 444.515 206.224 440.793 247.847L440.711 248.052L418.665 218.427C430.036 179.804 412.775 126.882 412.775 126.882C413.184 127.416 413.553 127.909 413.921 128.443Z" fill="#DB4A87"/>
<path d="M420.669 178.284C399.073 171.545 377.763 160.492 363.611 143.112C360.911 137.524 361.157 132.059 366.188 127.334C378.499 115.665 415.761 151.371 415.761 151.371L446.887 114.35C450.487 118.87 455.231 122.732 460.59 125.362C451.877 146.522 437.112 163.41 420.669 178.284Z" fill="#FEF2FE"/>
<path d="M420.669 178.284C437.112 163.41 451.919 146.563 460.549 125.321C462.185 126.142 463.903 126.841 465.621 127.375C453.677 157.698 424.923 187.365 424.923 187.365C424.923 187.365 373.632 163.985 363.57 143.071C377.763 160.451 399.073 171.545 420.669 178.284Z" fill="#F6DEF8"/>
<path d="M446.848 114.309L450.079 110.488C453.556 114.473 457.809 117.842 462.472 120.308C461.859 121.992 461.245 123.677 460.55 125.321C455.192 122.691 450.447 118.829 446.848 114.309Z" fill="#F6DEF8"/>
<path d="M467.379 122.485C466.848 124.129 466.234 125.731 465.621 127.375C463.862 126.8 462.185 126.101 460.549 125.32C461.203 123.677 461.858 121.992 462.471 120.308C464.066 121.129 465.702 121.869 467.379 122.485Z" fill="#F6DEF8"/>
<path d="M450.037 110.488L451.223 109.091C444.393 89.861 441.979 67.18 447.787 66.1528C447.828 66.1528 447.91 66.1528 447.951 66.1528C451.632 73.9597 452.532 82.0953 453.432 90.2308C458.054 88.1764 462.676 88.6694 467.257 90.765C472.369 93.3536 476.501 98.4896 473.924 104.16C471.879 107.242 466.234 107.776 465.702 108.803C464.803 112.789 463.657 116.651 462.389 120.349C457.767 117.842 453.514 114.473 450.037 110.488Z" fill="#FF96A9"/>
<path d="M473.965 104.078C476.542 98.4076 472.411 93.2715 467.298 90.6829C462.676 88.6285 458.054 88.0943 453.473 90.1487C452.573 82.0132 451.673 73.8776 447.992 66.0708C453.637 65.5366 454.986 87.7245 454.986 87.7245C454.986 87.7245 460.795 78.685 473.106 89.8611C490.448 105.639 469.711 113.816 469.711 113.816C469.139 116.651 468.361 119.568 467.421 122.444C465.744 121.828 464.067 121.089 462.472 120.226C463.78 116.528 464.885 112.665 465.785 108.68C466.275 107.694 471.92 107.201 473.965 104.078Z" fill="#ED7E94"/>
<path d="M388.072 526.346L370.934 548H466.644L388.072 526.346Z" fill="#322666"/>
<path d="M498.466 526.346L486.809 548H586.282L498.466 526.346Z" fill="#322666"/>
<path d="M403.532 100.585C404.391 102.434 405.74 104.283 407.826 105.885L409.626 121.869L387.457 106.913L382.59 94.2163C389.011 98.0376 396.333 100.544 403.532 100.585Z" fill="#FF96A9"/>
<path d="M410.486 122.896L422.552 128.895L415.435 108.063L419.443 124.334L409.627 121.869L405.7 131.895L384.922 114.309L406.723 135.1L410.486 122.896Z" fill="#F6DEF8"/>
<path d="M410.486 122.896L416.54 125.937L415.926 132.182L409.055 127.539L410.486 122.896Z" fill="#E5649A"/>
<path fill-rule="evenodd" clip-rule="evenodd" d="M2020 697H30.1738L0 188.995C10.7812 159.703 23.8203 192.25 45.9727 247.538C96.418 373.449 194.115 617.301 420 517.321C728 380.996 1052.81 390.989 1308 517.321C1510 617.321 1640 609.32 1704 463.321C1768 317.322 1824 191.322 2020 263.322V697Z" fill="#8B77E8"/>
</svg>
