<svg width="267" height="508" viewBox="0 0 267 508" fill="none" xmlns="http://www.w3.org/2000/svg">
<path d="M79.3594 225.343C79.3594 225.343 79.8815 248.327 81.9699 254.072C81.9699 254.072 83.5362 248.327 87.713 245.715L79.3594 225.343Z" fill="#7860DC"/>
<path d="M122.693 71.7695C123.738 68.113 124.26 65.5012 124.26 65.5012L131.047 68.113C131.047 68.113 131.047 69.1577 131.047 71.2472C127.914 71.7695 125.304 71.7695 122.693 71.7695Z" fill="#ED7E94"/>
<path d="M122.694 71.7693C125.305 71.7693 127.915 71.7693 130.526 71.7693C130.004 74.3811 129.482 79.0823 127.915 84.8282C124.783 95.2754 109.12 96.8425 115.907 86.9177C119.562 81.6941 121.65 75.9481 122.694 71.7693Z" fill="#FF96A9"/>
<path d="M114.863 53.487L111.73 51.3975L115.385 45.6516C120.084 50.3528 128.438 53.487 125.305 61.3223C124.261 63.4118 122.695 65.5012 120.084 66.5459C115.907 65.5012 113.297 63.9341 113.297 63.9341L114.863 53.487Z" fill="#FF96A9"/>
<path d="M125.303 61.3224C128.435 53.487 120.604 49.8305 115.383 45.6516L117.471 42.5175C128.957 39.3833 140.966 48.2634 143.576 52.9646C145.665 57.6659 131.046 68.6354 131.046 68.6354C127.391 68.6354 123.736 68.113 120.604 67.0683C122.692 65.5012 124.781 63.4118 125.303 61.3224Z" fill="#ED7E94"/>
<path d="M130.005 52.9645C130.005 52.9645 114.864 47.7409 97.6348 21.623C97.6348 21.623 129.483 32.0702 153.5 55.5763C153.5 55.5763 145.668 65.5011 131.049 68.6352L132.093 57.6657C132.093 57.6657 138.881 57.6657 136.27 51.3974C134.182 44.6068 130.005 52.9645 130.005 52.9645Z" fill="#3F327A"/>
<path d="M238.079 79.6049C238.079 79.6049 238.079 79.0825 237.557 79.0825C242.256 80.6496 246.432 88.485 248.521 108.335C248.521 108.335 248.521 109.902 248.521 113.036C247.477 114.08 246.432 114.603 244.866 115.125C246.432 103.633 244.344 91.0968 238.079 79.6049Z" fill="#ED7E94"/>
<path d="M234.944 118.259C235.466 115.648 235.466 113.036 235.466 110.424C235.466 110.424 230.245 110.424 230.245 107.29C230.245 107.29 218.759 105.723 222.936 93.7085C225.546 86.9179 232.334 77.5154 238.077 79.6049C238.077 79.6049 238.077 80.1272 238.599 80.1272C244.864 91.6191 246.953 104.156 245.908 116.17C244.342 116.692 242.254 117.215 240.687 117.737C238.599 117.737 237.033 117.737 234.944 118.259Z" fill="#FF96A9"/>
<path d="M249.044 113.558C249.044 115.125 249.044 116.692 248.522 118.782C247.478 119.304 245.911 120.349 244.867 120.871C244.867 119.304 245.389 117.737 245.389 115.648C246.956 115.125 248 114.603 249.044 113.558Z" fill="#EAC7ED"/>
<path d="M234.948 118.259C237.036 118.259 238.603 117.737 240.691 117.215C242.257 116.692 244.346 116.692 245.912 115.647C245.912 117.215 245.39 118.782 245.39 120.871C241.735 122.438 238.08 122.96 234.426 122.96C234.426 121.393 234.948 119.826 234.948 118.259Z" fill="#F6DEF8"/>
<path d="M52.2102 9.60913C53.2544 15.8774 50.1218 24.2351 39.6797 28.9364C34.9808 31.0258 33.4145 26.8469 33.4145 26.8469C33.4145 26.8469 31.8482 29.9811 28.7156 28.9364C25.0609 27.8916 25.0609 27.8917 25.0609 27.8917C25.0609 27.8917 24.5388 30.5034 23.4946 34.6823C21.9283 33.6376 20.884 32.5929 19.8398 31.0258C20.884 27.8916 21.4061 24.7575 22.4504 21.6234C33.4145 26.8469 46.9892 20.0563 52.2102 9.60913Z" fill="#ED7E94"/>
<path d="M39.1592 0.728967C44.9024 -1.88282 50.6455 2.8184 51.6897 10.1314C46.4687 20.5786 32.894 27.3692 21.9299 22.1456C20.8857 25.2798 19.8415 28.4139 19.3194 31.5481C17.231 29.4586 16.1868 27.3692 15.1426 24.7574C20.8857 13.7879 28.7172 5.43019 39.1592 0.728967Z" fill="#FF96A9"/>
<path d="M23.4944 34.6824C22.9723 35.7271 22.9723 36.7718 22.4502 38.3389C20.8839 37.2942 19.8397 36.7718 18.2734 35.7271C18.7955 34.16 18.7955 32.593 19.3176 31.0259C20.8839 32.0706 21.9281 33.6377 23.4944 34.6824Z" fill="#EAC7ED"/>
<path d="M12.5312 29.4584C13.5755 27.8914 14.0976 25.8019 15.1418 24.2349C16.186 26.8467 17.7522 28.9361 19.3185 31.0255C18.7964 32.5926 18.7965 34.1597 18.2744 35.7267C16.186 33.6373 14.0976 31.5479 12.5312 29.4584Z" fill="#F6DEF8"/>
<path d="M212.493 181.464C228.156 165.271 241.731 143.332 244.863 120.871C245.908 120.349 247.474 119.826 248.518 118.781C247.474 135.497 241.209 168.405 213.015 189.3C213.015 189.3 171.247 176.241 151.929 143.855L144.098 139.153C146.186 134.975 148.274 130.796 150.885 127.139C161.327 153.779 190.043 166.316 212.493 181.464Z" fill="#7860DC"/>
<path d="M17.7512 76.4706C14.0965 62.8893 15.1407 48.7856 18.2733 35.2043C19.3175 36.2491 20.8838 37.2938 22.4501 37.8161C19.8396 48.2633 16.707 63.4117 17.7512 76.4706Z" fill="#7860DC"/>
<path d="M18.2736 35.7272C15.141 49.3085 14.6189 63.4122 17.7515 76.9935C18.2736 83.2618 19.8398 89.0077 22.4503 93.7089C22.4503 93.7089 49.5997 94.7537 92.412 73.337L122.694 81.6947C138.357 85.3512 156.631 96.3207 156.631 96.3207C156.631 96.3207 175.948 144.9 207.796 162.66C207.796 162.66 229.725 149.079 234.424 123.483C238.078 123.483 241.733 122.961 245.388 121.394C242.255 144.378 228.681 166.317 213.017 181.987C190.567 166.839 161.852 154.302 151.41 127.662C148.799 131.319 146.711 135.498 144.622 139.676L83.5363 104.678C83.5363 104.678 74.1384 109.902 58.9975 114.081C40.7239 114.603 22.9725 114.081 4.69892 112.514C2.08841 107.813 0.522102 102.589 0 97.8878C0 79.6053 2.61052 51.9203 12.5304 30.5037C14.0968 31.5484 16.1852 33.6378 18.2736 35.7272Z" fill="#8B77E8"/>
<path d="M58.9975 113.558C43.8565 117.737 22.9725 120.871 0.522094 116.17C0.522094 116.17 0 108.335 0 96.8428C1.0442 102.066 2.61052 106.768 4.69892 111.469C22.9725 113.558 40.7239 114.603 58.9975 113.558Z" fill="#7860DC"/>
<path d="M111.728 400.333C104.419 439.509 85.101 471.373 65.7832 504.804C110.684 290.637 80.9242 230.566 80.9242 230.566C82.4905 226.91 85.101 224.298 87.7115 222.731C106.507 251.461 112.25 286.981 114.339 321.457C115.383 347.574 115.905 373.692 111.728 400.333Z" fill="#8B77E8"/>
<path d="M111.729 400.332C115.906 373.17 115.383 347.574 113.817 321.456C111.729 286.981 106.508 251.46 87.19 222.731C102.853 212.284 133.135 222.731 133.135 222.731C165.505 400.855 65.2617 505.326 65.2617 505.326C84.5795 471.895 104.419 440.032 111.729 400.332Z" fill="#7860DC"/>
<path d="M114.342 264.519C111.21 248.849 111.732 233.7 112.254 218.03C120.086 216.462 127.917 217.507 133.138 222.731C133.138 222.731 146.713 234.223 163.42 258.251C148.279 266.609 131.05 272.355 114.342 264.519Z" fill="#7860DC"/>
<path d="M112.776 218.03C112.254 233.7 111.21 248.849 114.865 264.519C131.05 272.877 148.279 267.131 163.942 258.251C192.658 300.04 230.249 380.483 220.329 505.326C220.329 505.326 121.652 257.206 80.9279 231.088C80.4058 230.566 97.1131 220.641 112.776 218.03Z" fill="#8B77E8"/>
<path d="M79.8818 223.776C78.3155 210.717 76.7492 182.509 81.9702 156.392C89.2796 120.871 112.252 78.5603 112.252 78.5603C119.562 80.1274 125.827 81.6944 131.048 84.3062L136.791 89.0075C136.791 89.0075 120.084 162.66 124.783 188.255C126.871 201.314 129.481 210.194 131.048 215.94C115.385 226.91 97.1112 227.955 79.8818 223.776Z" fill="#F6DEF8"/>
<path d="M130.525 215.418C132.092 220.641 133.136 222.731 133.136 222.731C133.136 222.731 104.42 241.536 80.4036 231.088C80.4036 231.088 79.8815 228.477 79.3594 223.775C97.1108 227.954 115.384 226.91 130.525 215.418Z" fill="#3F327A"/>
<path d="M117.996 91.6191C109.642 136.02 113.819 170.495 113.819 170.495C102.855 177.286 96.0676 189.822 95.0234 191.389C93.9792 157.436 101.289 121.916 117.996 91.6191Z" fill="#DB4A87"/>
<path d="M83.5371 167.361C95.5454 118.782 118.518 91.0969 118.518 91.0969C118.518 91.6193 118.518 91.6193 118.518 92.1416C101.811 122.438 93.9791 157.959 96.0675 191.912L83.5371 167.361Z" fill="#E5649A"/>
<path d="M151.41 127.14C152.976 130.796 155.065 134.453 157.153 138.109C156.109 139.676 154.543 141.766 152.976 143.855C145.667 153.258 138.357 172.062 137.313 189.823C132.614 168.928 139.924 144.377 151.41 127.14Z" fill="#7860DC"/>
<path d="M131.049 83.7839L137.314 85.8734L144.624 89.5299L161.853 131.841C161.853 131.841 161.853 131.841 157.154 138.109C155.066 134.975 152.978 131.318 151.411 127.14C139.925 144.377 133.138 168.928 136.792 189.823C136.27 194.524 136.27 199.747 137.314 203.926C140.447 224.298 178.038 234.745 178.038 234.745C151.933 270.266 123.218 264.52 123.218 264.52C92.9359 175.719 131.049 83.7839 131.049 83.7839Z" fill="#8B77E8"/>
<path d="M115.386 79.6047C115.386 79.6047 71.0075 140.721 81.9717 254.595C81.9717 254.595 57.955 162.137 100.245 79.6047H115.386Z" fill="#8B77E8"/>
<path d="M107.553 76.9929L89.2795 90.0519L93.9784 101.021L77.2711 106.767C77.2711 106.767 74.1385 155.869 81.9701 187.733L84.0585 169.973L86.1469 156.914L88.7574 143.855L92.4121 130.796L96.5889 117.737L100.766 107.29L103.898 100.499L107.553 93.186L111.208 85.873L115.907 79.0823L107.553 76.9929Z" fill="#7860DC"/>
<path d="M215.104 492.79L266.27 507.938H207.795L215.104 492.79Z" fill="#3F327A"/>
<path d="M75.1816 493.312L86.1457 507.939H22.4492L75.1816 493.312Z" fill="#3F327A"/>
<path d="M139.924 87.4404V103.111L131.048 106.768L144.101 120.871C144.101 120.871 117.474 162.138 111.73 190.345C111.73 130.796 131.048 83.7839 131.048 83.7839L137.313 85.8734L139.924 87.4404Z" fill="#7860DC"/>
<path d="M115.905 199.747C117.058 199.747 117.993 198.812 117.993 197.658C117.993 196.504 117.058 195.568 115.905 195.568C114.751 195.568 113.816 196.504 113.816 197.658C113.816 198.812 114.751 199.747 115.905 199.747Z" fill="#7860DC"/>
<path d="M115.908 213.329C115.908 214.373 116.952 215.418 117.997 215.418C119.041 215.418 120.085 214.373 120.085 213.329C120.085 212.284 119.041 211.239 117.997 211.239C116.952 211.239 115.908 212.284 115.908 213.329Z" fill="#7860DC"/>
<path d="M132.094 228.477C132.616 228.477 132.616 228.477 132.616 227.955L142.014 219.075C142.536 218.552 142.536 218.03 142.014 217.507C141.492 216.985 140.97 216.985 140.448 217.507L131.05 226.388C130.528 226.91 130.528 227.432 131.05 227.955C131.572 227.955 132.094 228.477 132.094 228.477Z" fill="#7860DC"/>
<path d="M83.5377 109.902C84.0598 109.902 84.0598 109.902 83.5377 109.902L89.2808 107.812C89.2808 107.812 89.8029 107.29 89.2808 107.29C89.2808 107.29 88.7587 106.768 88.7587 107.29L83.0156 109.379C83.5377 109.379 83.5377 109.379 83.5377 109.902Z" fill="#8B77E8"/>
<path d="M121.127 84.8284L122.171 90.0519L117.472 92.6637L116.428 88.4849L121.127 84.8284Z" fill="#E5649A"/>
</svg>
